<svg xmlns="http://www.w3.org/2000/svg" xml:space="preserve" fill-rule="evenodd" stroke-linejoin="round" stroke-miterlimit="2" clip-rule="evenodd" viewBox="0 0 257 257"><path fill="none" d="M.974.048h256v256h-256z"/><path fill="#fff" fill-rule="nonzero" d="M254.281 49.667c-2.709-1.323-3.883 1.205-5.461 2.496-.544.416-1.003.96-1.461 1.451-3.968 4.235-8.597 7.008-14.645 6.677-8.842-.491-16.394 2.283-23.072 9.045-1.419-8.341-6.133-13.312-13.301-16.512-3.755-1.664-7.552-3.317-10.186-6.933-1.835-2.571-2.336-5.44-3.253-8.256-.587-1.707-1.173-3.445-3.125-3.733-2.133-.331-2.965 1.451-3.797 2.944-3.339 6.101-4.629 12.821-4.501 19.626.288 15.317 6.752 27.519 19.605 36.191 1.461.992 1.835 1.995 1.376 3.445-.875 2.987-1.92 5.888-2.837 8.885-.587 1.909-1.461 2.315-3.509 1.493A59 59 0 0 1 167.597 93.9c-9.141-8.832-17.397-18.581-27.701-26.218a121 121 0 0 0-7.349-5.024c-10.506-10.208 1.387-18.592 4.139-19.584 2.88-1.045.992-4.608-8.309-4.565s-17.813 3.147-28.661 7.296a32.6 32.6 0 0 1-4.96 1.461 102.4 102.4 0 0 0-30.751-1.088c-20.106 2.24-36.159 11.754-47.967 27.978-14.186 19.498-17.525 41.663-13.44 64.767 4.299 24.362 16.736 44.532 35.839 60.297 19.818 16.352 42.634 24.362 68.671 22.826 15.808-.907 33.418-3.029 53.268-19.84 5.013 2.496 10.261 3.488 18.986 4.235 6.72.629 13.184-.32 18.186-1.365 7.84-1.664 7.296-8.928 4.469-10.25-22.986-10.709-17.941-6.347-22.538-9.877 11.69-13.824 29.29-28.181 36.181-74.697.533-3.701.075-6.027 0-9.013-.043-1.813.373-2.528 2.453-2.731a44.5 44.5 0 0 0 16.48-5.067c14.89-8.139 20.906-21.493 22.325-37.514.213-2.453-.043-4.981-2.635-6.272v.011ZM124.502 193.856c-22.282-17.514-33.087-23.285-37.546-23.04-4.181.256-3.424 5.024-2.507 8.139.96 3.072 2.208 5.184 3.957 7.883 1.216 1.781 2.048 4.437-1.205 6.432-7.179 4.437-19.648-1.493-20.234-1.781-14.517-8.554-26.666-19.84-35.21-35.274-8.256-14.858-13.056-30.794-13.845-47.807-.213-4.117.992-5.568 5.088-6.315a50.1 50.1 0 0 1 16.309-.416c22.741 3.328 42.09 13.493 58.324 29.589 9.258 9.173 16.266 20.128 23.488 30.837 7.68 11.37 15.936 22.208 26.453 31.082 3.712 3.115 6.667 5.483 9.504 7.221-8.554.96-22.826 1.173-32.575-6.549Zm10.666-68.692v-.011a3.28 3.28 0 0 1 3.264-3.264c.397 0 .791.073 1.163.214a3.23 3.23 0 0 1 2.133 3.072v.011a3.28 3.28 0 0 1-3.264 3.264h-.054a3.247 3.247 0 0 1-3.232-3.232v-.053h-.011Zm33.173 17.024c-2.133.864-4.256 1.611-6.293 1.707a13.3 13.3 0 0 1-8.512-2.709c-2.923-2.453-5.013-3.819-5.888-8.085a18.4 18.4 0 0 1 .171-6.272c.747-3.488-.085-5.728-2.549-7.755-1.995-1.664-4.544-2.123-7.339-2.123a6 6 0 0 1-2.709-.832c-1.173-.576-2.133-2.027-1.216-3.819.299-.576 1.707-1.984 2.048-2.24 3.797-2.155 8.181-1.451 12.224.171 3.755 1.536 6.592 4.352 10.677 8.341 4.171 4.811 4.928 6.144 7.307 9.749 1.877 2.827 3.584 5.728 4.747 9.045.715 2.08-.203 3.776-2.667 4.821Z"/></svg>