<svg xmlns="http://www.w3.org/2000/svg" xml:space="preserve" fill-rule="evenodd" stroke-linejoin="round" stroke-miterlimit="2" clip-rule="evenodd" viewBox="0 0 257 257"><path fill="none" d="M.974.048h256v256h-256z"/><clipPath id="id-f9ad11-a"><path d="M.974.048h256v256h-256z"/></clipPath><g clip-path="url(#id-f9ad11-a)"><path fill="#fff" d="m98.244 159.923 85.099-62.901c4.171-3.093 10.133-1.888 12.128 2.901 10.453 25.269 5.781 55.627-15.04 76.469-20.811 20.843-49.781 25.408-76.256 14.997l-28.917 13.408c41.483 28.384 91.851 21.365 123.328-10.165 24.971-25.003 32.704-59.083 25.472-89.813l.064.075c-10.485-45.141 2.581-63.189 29.333-100.085.64-.875 1.28-1.749 1.909-2.645l-35.211 35.253v-.107L98.212 159.945m-17.536 15.264c-29.781-28.48-24.64-72.544.757-97.963 18.784-18.805 49.568-26.485 76.437-15.2l28.853-13.333a83.3 83.3 0 0 0-19.509-10.667c-35.659-14.595-76.802-6.3-104.021 20.971-27.019 27.051-35.52 68.651-20.928 104.149 10.901 26.528-6.965 45.291-24.96 64.235-6.389 6.72-12.789 13.429-17.941 20.533l81.28-72.693"/></g></svg>