<svg xmlns="http://www.w3.org/2000/svg" xml:space="preserve" fill-rule="evenodd" stroke-linejoin="round" stroke-miterlimit="2" clip-rule="evenodd" viewBox="0 0 256 256"><path fill="none" d="M0 0h256v256H0z"/><path fill="#fff" fill-rule="nonzero" d="M73.569 42.667h-.256l-.331 27.893h.235c18.293 0 32.491 14.475 63.36 66.624l1.867 3.168.128.213 17.28-26.005-.128-.203a520 520 0 0 0-11.712-18.304 299 299 0 0 0-12.533-17.376c-20.405-26.069-37.482-36.01-57.92-36.01h.011Z"/><path fill="#fff" fill-rule="nonzero" d="M73.313 42.667c-20.512.107-38.677 13.419-51.765 33.813l-.107.181 24.043 13.131.117-.181c7.659-11.552 17.173-18.923 27.392-19.04h.224l.341-27.904z"/><path fill="#fff" fill-rule="nonzero" d="m21.537 76.48-.117.181c-8.619 13.44-15.04 29.952-18.496 47.754l-.053.235 27.029 6.4.043-.235c2.88-15.648 8.384-30.165 15.531-41.013l.117-.181L21.548 76.48z"/><path fill="#fff" fill-rule="nonzero" d="m29.942 130.816-27.019-6.4-.053.235a159 159 0 0 0-2.869 29.717v.245l27.712 2.485v-.245a134.3 134.3 0 0 1 2.24-26.027z"/><path fill="#fff" fill-rule="nonzero" d="M28.556 165.728a58 58 0 0 1-.843-8.672v-.235L.001 154.325v.256a95 95 0 0 0 1.557 17.621l27.04-6.24-.043-.235Z"/><path fill="#fff" fill-rule="nonzero" d="M34.881 180.16c-3.029-3.307-5.163-8.064-6.283-14.165l-.043-.224-27.04 6.24.043.224c2.048 10.773 6.059 19.733 11.797 26.528l.149.181 21.525-18.613-.16-.171z"/><path fill="#fff" fill-rule="nonzero" d="M114.987 102.976c-16.299 25.067-26.176 40.8-26.176 40.8-21.707 34.133-29.216 41.781-41.29 41.781a16.49 16.49 0 0 1-12.651-5.419l-21.515 18.603.149.181c7.936 9.269 19.115 14.411 32.96 14.411 20.939 0 35.989-9.899 62.762-56.853l18.837-33.386a440 440 0 0 0-13.088-20.117h.011Zm29.035-39.552-.171.171c-4.267 4.587-8.384 9.685-12.373 15.104 4.032 5.152 8.192 10.923 12.533 17.387 5.12-7.925 9.899-14.347 14.581-19.275l.171-.171-14.741-13.227z"/><path fill="#fff" fill-rule="nonzero" d="M223.126 60.939c-11.36-11.52-24.907-18.272-39.392-18.272-15.275 0-28.128 8.395-39.712 20.736l-.171.171 14.741 13.227.171-.181c7.627-7.968 15.019-11.947 23.211-11.947 8.811 0 17.067 4.16 24.213 11.467l.16.171 16.949-15.2-.171-.171Z"/><path fill="#fff" fill-rule="nonzero" d="M255.979 150.667c-.64-36.981-13.547-70.037-32.682-89.557l-.171-.171-16.939 15.189.16.171c14.4 14.848 24.288 42.453 25.184 74.357v.245h24.448v-.235Z"/><path fill="#fff" fill-rule="nonzero" d="M255.979 150.933v-.245h-24.448v.235a158 158 0 0 1 .064 4.523c0 8.693-1.291 15.723-3.925 20.8l-.117.235 18.219 19.008.139-.213c6.613-10.24 10.091-24.459 10.091-41.706 0-.885 0-1.76-.021-2.635Z"/><path fill="#fff" fill-rule="nonzero" d="m227.669 176.213-.117.213c-2.283 4.288-5.536 7.147-9.781 8.395l8.299 26.261c1.6-.541 3.16-1.189 4.672-1.941a37.96 37.96 0 0 0 14.571-12.992l.469-.693.128-.213-18.24-19.029Z"/><path fill="#fff" fill-rule="nonzero" d="M212.48 185.525c-2.795 0-5.248-.416-7.659-1.493l-8.512 26.901c4.789 1.632 9.888 2.368 15.573 2.368 5.248 0 10.059-.779 14.421-2.293l-8.32-26.261c-1.781.533-3.637.8-5.515.779h.011Z"/><path fill="#fff" fill-rule="nonzero" d="m195.446 176.362-.149-.181-19.584 20.416.171.181c6.795 7.275 13.291 11.787 20.661 14.261l8.501-26.88c-3.104-1.333-6.112-3.765-9.6-7.797"/><path fill="#fff" fill-rule="nonzero" d="M195.296 176.16c-5.867-6.848-13.141-18.261-24.565-36.693L155.84 114.55l-.117-.213-17.28 26.005.128.213 10.549 17.792c10.229 17.173 18.56 29.589 26.592 38.24l.171.171 19.563-20.416z"/></svg>