<svg xmlns="http://www.w3.org/2000/svg" xml:space="preserve" fill-rule="evenodd" stroke-linejoin="round" stroke-miterlimit="2" clip-rule="evenodd" viewBox="0 0 256 256"><path fill="none" d="M0 0h256v256H0z"/><clipPath id="a"><path d="M0 0h256v256H0z"/></clipPath><g clip-path="url(#a)"><path fill="#fff" d="M239.147 104.774a63.04 63.04 0 0 0-5.564-52.374c-14.165-24.32-42.624-36.84-70.419-30.952A65.1 65.1 0 0 0 114.383.003c-28.412-.058-53.624 17.99-62.365 44.66A64.67 64.67 0 0 0 8.8 75.592c-14.232 24.163-10.953 55.003 8.043 75.635a63.04 63.04 0 0 0 5.552 52.386c14.165 24.32 42.624 36.829 70.419 30.952a65.06 65.06 0 0 0 48.77 21.434c28.435.07 53.658-17.99 62.4-44.683a64.66 64.66 0 0 0 43.241-30.952c14.205-24.161 10.917-54.978-8.066-75.6v.012h-.012Zm-97.551 134.491a48.9 48.9 0 0 1-31.136-11.101 32 32 0 0 0 1.536-.861l51.68-29.44a8.27 8.27 0 0 0 4.237-7.249v-71.865l21.847 12.439a.77.77 0 0 1 .419.582v59.519c-.035 26.461-21.766 47.918-48.584 47.976ZM37.107 195.257a47.23 47.23 0 0 1-5.797-32.151c.372.233 1.048.64 1.525.908l51.68 29.44a8.52 8.52 0 0 0 8.497 0l63.087-35.933v24.878a.79.79 0 0 1-.314.663l-52.238 29.742c-23.268 13.219-52.983 5.353-66.427-17.571h-.012v.023ZM23.5 83.969a48.3 48.3 0 0 1 25.316-21.015l-.023 1.757v58.879a8.28 8.28 0 0 0 4.237 7.261l63.087 35.921-21.836 12.451a.78.78 0 0 1-.733.058l-52.25-29.777c-23.221-13.265-31.182-42.565-17.809-65.512h.012v-.023Zm179.447 41.192L139.86 89.228l21.836-12.427a.78.78 0 0 1 .733-.07l52.25 29.754c23.256 13.265 31.229 42.612 17.797 65.547a48.46 48.46 0 0 1-25.304 21.027v-60.636a8.27 8.27 0 0 0-4.225-7.249zm21.731-32.267a70 70 0 0 0-1.536-.908l-51.68-29.44a8.52 8.52 0 0 0-8.485 0L99.89 98.479V73.601a.79.79 0 0 1 .314-.663l52.227-29.73c23.279-13.23 53.018-5.353 66.427 17.606a47.42 47.42 0 0 1 5.808 32.081h.012Zm-136.66 44.334-21.847-12.427a.75.75 0 0 1-.419-.593V64.689c.012-26.496 21.801-47.964 48.665-47.941a49.03 49.03 0 0 1 31.089 11.101c-.396.209-1.071.582-1.525.849l-51.68 29.44a8.27 8.27 0 0 0-4.248 7.249l-.035 71.83v.023zm11.872-25.227 28.098-16 28.098 16v32l-28.098 16-28.11-16v-32z"/></g></svg>