<svg xmlns="http://www.w3.org/2000/svg" xml:space="preserve" fill-rule="evenodd" stroke-linejoin="round" stroke-miterlimit="2" clip-rule="evenodd" viewBox="0 0 369 115"><path fill="none" d="M0 0h369v114.8H0z"/><clipPath id="id-94a2d4-a"><path d="M0 0h369v114.8H0z"/></clipPath><g fill="#fff" clip-path="url(#id-94a2d4-a)"><path fill-rule="nonzero" d="M35.236 0h15.101v36.494H35.236zM15.101 0H0v20.764l15.101 15.73zM0 36.494h15.101v20.135H0zm35.238 0H15.103l11.955 15.101h8.18zm30.118-35.31h37.577v5.557H87.166v43.064h-6.043V6.741H65.356zm35.701 30.909q0-5.418 2.084-9.516 2.152-4.098 5.973-6.321 3.82-2.292 8.752-2.292 4.862 0 8.613 2.014 3.752 2.015 5.904 5.835t2.292 8.96q0 .764-.139 2.431H107.03v.486q.14 5.21 3.195 8.335 3.057 3.126 7.988 3.126 3.82 0 6.46-1.876 2.709-1.945 3.612-5.348h5.765q-1.042 5.418-5.21 8.891-4.167 3.404-10.21 3.404-5.279 0-9.238-2.223-3.96-2.292-6.182-6.39-2.153-4.167-2.153-9.516m27.714-3.612q-.417-4.515-3.404-7.015-2.917-2.5-7.432-2.501-4.028 0-7.085 2.639-3.056 2.64-3.473 6.876h21.393Zm16.713 9.655q.139 3.195 2.778 5.209 2.709 2.014 6.946 2.014 3.75 0 6.043-1.459 2.362-1.528 2.362-3.959 0-2.084-1.111-3.195t-2.917-1.528q-1.736-.417-5.001-.834-4.584-.556-7.502-1.459-2.917-.903-4.723-2.848-1.806-2.014-1.806-5.487 0-3.126 1.736-5.557 1.806-2.431 4.862-3.751 3.056-1.389 6.876-1.389 6.252 0 10.141 2.917 3.96 2.917 4.376 8.335h-5.696q-.348-2.778-2.709-4.584t-5.904-1.806q-3.612 0-5.835 1.528-2.223 1.458-2.223 3.89 0 1.806 1.042 2.778 1.041.972 2.639 1.32 1.666.348 5.001.764 4.653.555 7.64 1.528 3.056.972 4.862 3.126 1.875 2.152 1.876 5.835 0 3.195-1.876 5.626-1.875 2.43-5.07 3.751t-7.085 1.32q-6.946 0-11.183-3.195-4.167-3.195-4.237-8.891h5.696Zm32.577-18.546h-6.39v-5.209h6.39V4.448h5.696v9.933h8.96v5.209h-8.96v20.907q0 2.223.834 3.195.903.903 3.056.903h6.182v5.209H187.3q-5.001 0-7.154-2.223-2.084-2.223-2.084-7.015V19.59Zm20.653-18.406h7.64L223.58 41.54l17.017-40.356h7.502v48.621h-5.904V11.464l-16.114 38.341h-5.348l-16.114-38.341v38.341h-5.904zm88.469 13.197v35.424h-4.932l-.763-4.723q-4.03 5.14-11.323 5.14-6.32 0-10.141-3.89t-3.82-12.225V14.381h5.696V33.76q0 5.488 2.362 8.404 2.432 2.848 6.876 2.848 4.862 0 7.571-3.473 2.779-3.473 2.779-9.446V14.381zm22.816 35.424 18.546-48.621h7.154l18.477 48.621h-6.461l-5.139-13.128h-21.184l-5.142 13.128zm13.198-18.615h17.574l-8.822-23.408zm36.481-30.006h6.042v48.621h-6.042z"/><path fill-rule="nonzero" d="M65.356 1.184h37.577v5.557H87.166v43.064h-6.043V6.741H65.356zm35.701 30.909q0-5.418 2.084-9.516 2.152-4.098 5.973-6.321 3.82-2.292 8.752-2.292 4.862 0 8.613 2.014 3.752 2.015 5.904 5.835t2.292 8.96q0 .764-.139 2.431H107.03v.486q.14 5.21 3.195 8.335 3.057 3.126 7.988 3.126 3.82 0 6.46-1.876 2.709-1.945 3.612-5.348h5.765q-1.042 5.418-5.21 8.891-4.167 3.404-10.21 3.404-5.279 0-9.238-2.223-3.96-2.292-6.182-6.39-2.153-4.167-2.153-9.516m27.714-3.612q-.417-4.515-3.404-7.015-2.917-2.5-7.432-2.501-4.028 0-7.085 2.639-3.056 2.64-3.473 6.876h21.393Zm16.713 9.655q.139 3.195 2.778 5.209 2.709 2.014 6.946 2.014 3.75 0 6.043-1.459 2.362-1.528 2.362-3.959 0-2.084-1.111-3.195t-2.917-1.528q-1.736-.417-5.001-.834-4.584-.556-7.502-1.459-2.917-.903-4.723-2.848-1.806-2.014-1.806-5.487 0-3.126 1.736-5.557 1.806-2.431 4.862-3.751 3.056-1.389 6.876-1.389 6.252 0 10.141 2.917 3.96 2.917 4.376 8.335h-5.696q-.348-2.778-2.709-4.584t-5.904-1.806q-3.612 0-5.835 1.528-2.223 1.458-2.223 3.89 0 1.806 1.042 2.778 1.041.972 2.639 1.32 1.666.348 5.001.764 4.653.555 7.64 1.528 3.056.972 4.862 3.126 1.875 2.152 1.876 5.835 0 3.195-1.876 5.626-1.875 2.43-5.07 3.751t-7.085 1.32q-6.946 0-11.183-3.195-4.167-3.195-4.237-8.891h5.696Zm32.577-18.546h-6.39v-5.209h6.39V4.448h5.696v9.933h8.96v5.209h-8.96v20.907q0 2.223.834 3.195.903.903 3.056.903h6.182v5.209H187.3q-5.001 0-7.154-2.223-2.084-2.223-2.084-7.015V19.59Zm20.653-18.406h7.64L223.58 41.54l17.017-40.356h7.502v48.621h-5.904V11.464l-16.114 38.341h-5.348l-16.114-38.341v38.341h-5.904zm88.469 13.197v35.424h-4.932l-.763-4.723q-4.03 5.14-11.323 5.14-6.32 0-10.141-3.89t-3.82-12.225V14.381h5.696V33.76q0 5.488 2.362 8.404 2.432 2.848 6.876 2.848 4.862 0 7.571-3.473 2.779-3.473 2.779-9.446V14.381zm22.816 35.424 18.546-48.621h7.154l18.477 48.621h-6.461l-5.139-13.128h-21.184l-5.142 13.128zm13.198-18.615h17.574l-8.822-23.408zm36.481-30.006h6.042v48.621h-6.042zM.002 80.413h13.823v2.542H2.767v7.436h9.152v2.542H2.767v9.724H.002zm22.664 22.435q-2.352 0-4.195-1.049a7.36 7.36 0 0 1-2.828-2.924Q14.626 97 14.626 94.553t1.017-4.322a7.4 7.4 0 0 1 2.828-2.924q1.843-1.048 4.195-1.048 2.351 0 4.163 1.048a7.3 7.3 0 0 1 2.86 2.924q1.017 1.874 1.017 4.322t-1.017 4.322a7.3 7.3 0 0 1-2.86 2.924q-1.812 1.049-4.163 1.049m0-2.32q1.589 0 2.796-.763 1.24-.762 1.907-2.129t.667-3.082q0-1.716-.667-3.083-.667-1.366-1.907-2.129-1.207-.763-2.796-.763t-2.828.763q-1.207.763-1.875 2.129t-.667 3.083q0 1.716.667 3.082.668 1.367 1.875 2.129 1.24.763 2.828.763m19.258-14.077v2.542h-1.303q-2.32 0-3.337 1.557-.985 1.557-.985 3.845v8.262h-2.606V86.451h2.256l.349 2.447a5.4 5.4 0 0 1 1.811-1.779q1.112-.667 3.083-.667h.731Zm20.464-.191q2.733 0 4.417 1.716 1.716 1.716 1.716 5.339v9.343h-2.606v-9.184q0-2.352-1.017-3.591-.986-1.239-2.828-1.239-2.034 0-3.21 1.43-1.144 1.43-1.144 3.909v8.675H55.11v-9.184q0-2.352-1.017-3.591t-2.892-1.239q-1.97 0-3.146 1.525-1.144 1.494-1.144 3.94v8.548h-2.606V86.451h2.256l.35 2.224q1.748-2.415 4.735-2.415 1.747 0 3.082.794 1.367.762 2.034 2.288 1.747-3.082 5.625-3.082Zm8.903 8.294q0-2.479.953-4.353.985-1.875 2.733-2.892 1.748-1.048 4.004-1.048 2.224 0 3.94.922 1.716.921 2.701 2.669t1.049 4.099q0 .35-.064 1.112H74.024v.222q.063 2.383 1.462 3.813 1.398 1.43 3.654 1.43 1.748 0 2.955-.858 1.24-.89 1.652-2.447h2.637q-.477 2.478-2.383 4.068-1.907 1.557-4.671 1.557-2.415 0-4.226-1.017a7.37 7.37 0 0 1-2.828-2.924q-.985-1.906-.985-4.353m12.679-1.652q-.19-2.065-1.557-3.21-1.335-1.144-3.4-1.144a4.8 4.8 0 0 0-3.241 1.208q-1.398 1.208-1.589 3.146zm13.905-6.451v2.542h-1.303q-2.32 0-3.337 1.557-.985 1.557-.985 3.845v8.262h-2.606V86.451H91.9l.35 2.447a5.4 5.4 0 0 1 1.811-1.779q1.112-.667 3.082-.667h.731Zm2.383-6.038h2.606v22.244h-2.606zm7.319 6.038 4.989 13.219 4.83-13.219h2.765l-7.468 18.939q-.572 1.462-1.017 2.193-.444.73-1.112 1.08t-1.779.35h-3.114v-2.383h2.32q.763 0 1.144-.159t.604-.54q.254-.35.604-1.207l.826-1.938-6.355-16.333h2.765Zm42.207 3.114a1.47 1.47 0 0 1 1.563-.071l.546.314 16.218 9.223v-.906c.001-.743.818-1.208 1.473-.838l3.138 1.779a.97.97 0 0 1 .494.838v2.947a.97.97 0 0 1-.281.677l-1.479 1.485c-.555.697-1.369.974-2.096.562l-11.663-6.653-.006 12.553c.041.471-.156.933-.532 1.231l-2.15 1.711a1.46 1.46 0 0 1-.983.379 1.435 1.435 0 0 1-1.446-1.422l.003-17.361-1.965-1.119-.993.562c-.047.032-.032.023-1.034.592-.706.407-1.596.193-2.003-.497l-.554-.941-.551-.933c-.41-.697-.19-1.571.51-1.97l.966-.546 2.393-1.356.431-.24Zm5.409-14.933c.474.023.941.175 1.269.404l7.275 4.137.404.224 7.395 4.208.404.229c.395.225.718.546.941.933.221.384.337.82.333 1.255l.003 8.061c0 .745-.821 1.211-1.476.838l-3.138-1.785a.97.97 0 0 1-.491-.838v-4.844l-6.391-3.638a16 16 0 0 1-.526-.295l-6.121-3.485-6.369 3.618-.098.063-.45.259-6.121 3.477v14.84l6.394 3.641c.041.02.13.068.538.3l.131.115.109.144a.96.96 0 0 1 .388.767v3.556c0 .753-.836 1.216-1.501.822l-1.681-1.062-.401-.224c-.029-.016-2.353-1.336-7.401-4.208l-.401-.226a2.54 2.54 0 0 1-.944-.936 2.5 2.5 0 0 1-.333-1.255l-.003-8.853v-8.866c0-.471.136-.931.387-1.326.249-.396.608-.722.983-.901l7.3-4.151.398-.229c.132-.075.134-.075.404-.226l6.992-3.973.407-.238a2.6 2.6 0 0 1 1.394-.333Z"/><path d="M183.687 102.944a.67.67 0 0 1-.483-.203.64.64 0 0 1-.207-.473V84.684q0-.297.207-.487a.7.7 0 0 1 .483-.189h3.864q.303 0 .497.189a.65.65 0 0 1 .193.487v14.014h8.281q.303 0 .51.203a.67.67 0 0 1 .207.5v2.868a.63.63 0 0 1-.207.487.73.73 0 0 1-.51.189zm14.792 0a.56.56 0 0 1-.4-.176.54.54 0 0 1-.179-.392.8.8 0 0 1 .027-.243l6.431-17.34q.276-.784 1.104-.784h4.306q.828 0 1.104.784l6.431 17.34a.8.8 0 0 1 .028.243q0 .216-.18.392a.56.56 0 0 1-.4.176h-3.588q-.662 0-.938-.595l-.994-2.624H204l-.994 2.624q-.276.595-.939.595zm6.687-7.276h4.913l-2.456-6.899zm14.986 7.276a.73.73 0 0 1-.511-.189.63.63 0 0 1-.207-.487V84.711q0-.297.207-.5a.7.7 0 0 1 .511-.203h3.119q.69 0 .993.595l4.747 8.332 4.775-8.332q.304-.595.993-.595h3.119a.704.704 0 0 1 .718.703v17.557a.63.63 0 0 1-.207.487.73.73 0 0 1-.511.189h-3.505a.67.67 0 0 1-.483-.203.64.64 0 0 1-.207-.473v-9.847l-2.981 5.357q-.359.622-.966.622h-1.49q-.552 0-.966-.622l-2.953-5.357v9.847a.63.63 0 0 1-.207.487.73.73 0 0 1-.511.189zm22.901 0a.67.67 0 0 1-.483-.203.64.64 0 0 1-.207-.473V84.711q0-.297.193-.5a.66.66 0 0 1 .497-.203h8.529q3.505 0 5.217 1.407 1.711 1.406 1.711 4.004 0 1.299-.704 2.245-.703.947-1.56 1.38 1.132.486 1.905 1.61.773 1.123.773 2.529 0 2.732-1.836 4.247-1.835 1.515-5.258 1.515zm7.956-11.445q1.02 0 1.573-.541t.552-1.406q0-.838-.538-1.366-.539-.528-1.586-.527h-3.448v3.84h3.448Zm.248 7.791q1.076 0 1.669-.609.593-.607.593-1.501 0-.92-.607-1.528t-1.655-.608h-3.697v4.245h3.697Zm11.322 3.654a.67.67 0 0 1-.483-.203.64.64 0 0 1-.207-.473V84.711a.7.7 0 0 1 .193-.5.66.66 0 0 1 .497-.203h7.259q4.084 0 6.348 1.907 2.263 1.907 2.373 5.478.028.785.028 2.083t-.028 2.056q-.276 7.412-8.584 7.412zm7.259-4.058q1.738 0 2.567-.811.828-.812.883-2.597.055-.784.055-2.029t-.055-2.002q-.056-1.731-.952-2.556-.897-.825-2.636-.825h-2.622v10.821h2.76Zm10.819 4.058a.56.56 0 0 1-.4-.176.54.54 0 0 1-.179-.392q0-.162.025-.243l6.433-17.34q.275-.784 1.104-.784h4.306q.826 0 1.104.784l6.43 17.34q.029.082.028.243a.54.54 0 0 1-.179.392.56.56 0 0 1-.4.176h-3.588q-.662 0-.939-.595l-.995-2.624h-7.232l-.992 2.624q-.276.595-.939.595h-3.588Zm6.679-7.276h4.913l-2.456-6.899zm17.901 7.546a.73.73 0 0 1-.509-.189.62.62 0 0 1-.207-.487V88.687h-4.859a.73.73 0 0 1-.509-.189.63.63 0 0 1-.21-.487v-3.03q0-.297.21-.5a.7.7 0 0 1 .509-.203h14.989a.7.7 0 0 1 .509.203q.209.203.207.5v3.03a.62.62 0 0 1-.207.487.72.72 0 0 1-.509.189h-4.859v13.851q0 .298-.207.487a.72.72 0 0 1-.509.189zm13.257 0a.68.68 0 0 1-.483-.203.65.65 0 0 1-.207-.473V84.981q-.001-.297.196-.5a.65.65 0 0 1 .495-.203h13.028a.7.7 0 0 1 .718.703v2.678q0 .297-.207.487a.72.72 0 0 1-.511.19h-8.721v3.436h8.115q.302 0 .511.203a.68.68 0 0 1 .207.501v2.462q0 .297-.207.5a.7.7 0 0 1-.511.203h-8.115v3.517h8.942a.7.7 0 0 1 .718.703v2.678q0 .298-.207.487a.73.73 0 0 1-.511.189h-13.248Zm24.342.271q-2.676 0-4.555-.758-1.873-.757-2.842-2.002-.965-1.244-1.02-2.705 0-.243.179-.406a.62.62 0 0 1 .428-.162h3.672q.331 0 .537.108.21.108.455.378.36.65 1.118 1.069.759.42 2.029.419 1.492 0 2.291-.446.8-.447.799-1.231 0-.568-.414-.933-.41-.366-1.325-.65-.91-.284-2.621-.635-3.341-.65-4.996-1.975t-1.654-3.787q0-1.677.95-2.989.952-1.312 2.705-2.042t4.071-.73c1.618 0 3.024.275 4.208.825q1.782.825 2.733 2.056t1.009 2.422a.6.6 0 0 1-.168.419.54.54 0 0 1-.414.176h-3.862q-.608 0-.939-.487-.167-.569-.858-.96-.687-.392-1.71-.392c-.771 0-1.372.135-1.794.406q-.634.405-.634 1.19.001.784.827 1.231.83.447 3.091.906 2.596.46 4.127 1.15c1.023.46 1.774 1.055 2.263 1.785q.733 1.096.732 2.773-.001 1.839-1.076 3.192-1.078 1.352-2.982 2.07-1.907.717-4.362.717Zm16.034-.271a.73.73 0 0 1-.509-.189.63.63 0 0 1-.21-.487V88.687h-4.857a.73.73 0 0 1-.509-.189.62.62 0 0 1-.207-.487v-3.03q-.001-.297.207-.5a.7.7 0 0 1 .509-.203h14.986q.306 0 .511.203.208.203.207.5v3.03a.62.62 0 0 1-.207.487.73.73 0 0 1-.511.189h-4.857v13.851q0 .298-.207.487a.73.73 0 0 1-.511.189h-3.837Z"/></g></svg>