<svg xmlns="http://www.w3.org/2000/svg" xml:space="preserve" fill-rule="evenodd" stroke-linejoin="round" stroke-miterlimit="2" clip-rule="evenodd" viewBox="0 0 369 79"><path fill="none" d="M0 0h369v79H0z"/><clipPath id="id-2691ea-a"><path d="M0 0h369v79H0z"/></clipPath><g fill="#fff" fill-rule="nonzero" clip-path="url(#id-2691ea-a)"><path d="M153.946 24.824q3.927 1.532 5.657 3.627 1.731 2.096 1.73 5.424.001 4.726-3.527 7.52-3.53 2.796-9.383 2.795-6.589.002-11.447-2.529v-4.659q6.254 2.062 11.58 2.063 3.26-.001 4.958-1.264 1.697-1.263 1.697-3.66.001-1.597-1.032-2.595c-.689-.665-1.939-1.331-3.76-1.997l-5.657-2.13q-7.387-2.73-7.387-9.317.001-4.328 3.361-6.988c2.239-1.773 5.181-2.662 8.818-2.662s6.812.708 9.916 2.13v4.658q-5.191-1.663-9.583-1.664-6.389-.001-6.389 4.326.001 1.731 1.065 2.729 1.062.998 4.193 2.196l5.191 1.996Zm32.168 17.568q-3.258 1.264-7.387 1.264-9.45 0-9.45-9.45V14.64h-6.123v-4.259l6.322-.799.998-9.583h5.39v9.45h9.983v5.191h-9.983v19.233q0 2.461 1.098 3.461 1.1.998 3.76.998c1.773 0 3.618-.224 5.39-.666v4.725Zm30.869.8h-5.457l-.532-3.461a18.3 18.3 0 0 1-5.291 3.194q-2.897 1.132-5.757 1.131c-3.152 0-5.666-.898-7.553-2.695q-2.83-2.694-2.828-7.22.001-4.857 3.461-7.753c2.305-1.93 5.414-2.895 9.317-2.895q3.858 0 8.385 1.131v-4.392q.001-3.595-1.631-5.058-1.63-1.463-5.557-1.464-5.657.001-11.713 2.063v-4.658q2.397-1.263 5.856-1.963a35 35 0 0 1 6.988-.699q6.323-.001 9.317 2.629t2.995 8.019zm-6.256-14.308a29 29 0 0 0-7.054-.865q-7.521 0-7.52 5.79 0 2.53 1.398 3.893t3.993 1.364q4.528 0 9.184-3.394zm20.412 14.307h-6.588V9.45h5.524l.732 4.991q1.863-1.997 3.461-3.095 1.598-1.097 3.261-1.63 1.66-.534 3.594-.532c.841 0 1.754.067 2.729.2v5.989q-2.132-.265-3.594-.266-5.325 0-9.117 3.194v24.89Zm37.939-.799q-3.259 1.264-7.388 1.264-9.447 0-9.449-9.45V14.64h-6.123v-4.259l6.323-.799.998-9.583h5.39v9.45h9.982v5.191h-9.982v19.233q0 2.461 1.097 3.461 1.102.998 3.762.998c1.771 0 3.616-.224 5.39-.666zm33.007.798h-5.457l-.731-3.594c-4.128 3.061-8.362 4.592-12.712 4.592-3.152 0-5.565-.889-7.253-2.662-1.69-1.773-2.529-4.283-2.529-7.52V9.449h6.588v22.427q0 3.594 1.398 5.291t4.459 1.697c3.194 0 6.413-1.065 9.649-3.194V9.45h6.588v33.741Zm14.223 13.711h-6.588V9.451h5.523l.598 3.461q5.059-4.458 11.247-4.459c4.128 0 7.697 1.564 10.182 4.692q3.73 4.693 3.728 12.744c0 5.367-1.307 9.825-3.925 13.11-2.621 3.285-6.099 4.925-10.449 4.925-3.994 0-7.43-1.307-10.316-3.926zm0-21.495q4.327 3.195 8.784 3.194 9.185 0 9.184-12.378c0-4.216-.741-7.344-2.231-9.383q-2.23-3.06-6.82-3.061c-3.061 0-6.124 1.022-8.917 3.061zm45.306-10.582c2.618 1.022 4.501 2.23 5.657 3.627 1.156 1.398 1.729 3.204 1.729 5.424q.001 4.726-3.525 7.52-3.53 2.796-9.384 2.795-6.588.002-11.447-2.529v-4.659q6.254 2.062 11.58 2.063 3.258-.001 4.958-1.264 1.697-1.263 1.697-3.66.001-1.597-1.033-2.595c-.689-.665-1.939-1.331-3.76-1.997l-5.657-2.13q-7.385-2.73-7.386-9.317.001-4.328 3.359-6.988 3.362-2.66 8.819-2.662c3.636 0 6.813.708 9.915 2.13v4.658q-5.192-1.663-9.582-1.664-6.39-.001-6.39 4.326c0 1.155.358 2.063 1.065 2.729q1.063.998 4.194 2.196zM102.727 44.18c-2.134 0-4.216-.238-6.256-.708-2.039-.475-3.603-1.017-4.692-1.635q-.997-.568-1.245-1.136a2.8 2.8 0 0 1-.247-1.136v-2.063q.001-1.278.922-1.279.356 0 .746.143.392.143 1.032.428a21.2 21.2 0 0 0 4.478 1.421q2.418.5 4.834.499 3.836-.002 5.932-1.35t2.096-3.836c0-1.136-.366-2.087-1.103-2.843s-2.096-1.469-4.088-2.134l-5.899-1.849q-4.478-1.42-6.503-4.121-2.025-2.704-2.025-5.899c0-1.707.366-3.209 1.103-4.516a10.9 10.9 0 0 1 2.914-3.342q1.812-1.383 4.231-2.096a18.2 18.2 0 0 1 5.119-.713c.898 0 1.811.062 2.738.176.922.119 1.802.276 2.629.461.827.19 1.602.404 2.31.642.713.238 1.279.475 1.707.713q.853.5 1.207.993c.238.333.356.78.356 1.35v1.92q-.001 1.278-.922 1.279c-.333 0-.851-.166-1.564-.499q-3.485-1.563-7.819-1.564c-2.324 0-4.121.38-5.4 1.136q-1.92 1.14-1.92 3.627c0 1.136.399 2.096 1.207 2.881.803.78 2.296 1.531 4.478 2.239l5.757 1.849q4.407 1.426 6.289 3.907 1.883 2.49 1.883 5.685c0 1.754-.357 3.332-1.065 4.725a10.8 10.8 0 0 1-2.952 3.589q-1.884 1.492-4.516 2.277c-1.754.523-3.675.78-5.757.78m-52.17-1.065c-.713 0-1.231-.128-1.564-.39q-.5-.39-.851-1.602L38.611 9.708q-.357-1.206-.357-1.635.001-.992.994-.993h3.979c.756 0 1.288.133 1.602.39q.462.392.818 1.597l6.826 26.867L58.8 9.067c.19-.803.452-1.34.78-1.597.333-.261.875-.39 1.635-.39h3.27c.756 0 1.303.133 1.635.39.333.261.589.794.78 1.597l6.398 27.223 7.035-27.223c.238-.803.509-1.34.818-1.597q.462-.39 1.602-.39h3.765q.993.002.994.993 0 .285-.071.642-.072.358-.285.993l-9.811 31.416q-.358 1.211-.851 1.602c-.333.262-.851.39-1.564.39h-3.484c-.761 0-1.303-.143-1.635-.428s-.594-.827-.78-1.635l-6.327-26.159-6.256 26.159c-.19.808-.452 1.35-.78 1.635-.333.285-.874.428-1.635.428h-3.484.005Zm-32.628-4.407q1.99.001 4.193-.746c1.469-.499 2.748-1.359 3.836-2.595a6.35 6.35 0 0 0 1.383-2.595q.392-1.456.39-3.518v-1.706a35 35 0 0 0-3.731-.675 30 30 0 0 0-3.803-.247q-4.05.002-6.042 1.635-1.99 1.633-1.992 4.692.001 2.846 1.493 4.302c.993.97 2.415 1.459 4.264 1.459m16.49-6.184q-.001 2.273.461 3.627t1.317 2.914q.285.5.285.922 0 .643-.784 1.207l-2.557 1.706q-.572.357-1.065.357c-.428 0-.827-.19-1.207-.571a9.4 9.4 0 0 1-1.459-1.882 30 30 0 0 1-1.245-2.382c-3.175 3.746-7.154 5.614-11.941 5.614q-5.118.001-8.105-2.914T5.12 33.31q-.001-5.185 3.698-8.352 3.694-3.16 9.949-3.161 2.062 0 4.302.318c1.493.214 3.042.509 4.658.889v-2.985q-.002-4.62-1.92-6.503-1.92-1.882-6.612-1.882-2.133-.001-4.373.532a31 31 0 0 0-4.373 1.388q-.995.427-1.421.532a3 3 0 0 1-.637.105q-.853-.001-.851-1.279V10.92q0-.995.285-1.421.286-.428 1.136-.851c1.421-.713 3.128-1.326 5.12-1.849s4.098-.784 6.327-.784q7.25.001 10.629 3.304 3.373 3.307 3.375 9.987v13.22l-.005.005Zm76.004 31.401C97.037 73.8 77.648 79.048 60.953 79.048c-23.397 0-44.469-8.647-60.413-23.045-1.25-1.131-.138-2.676 1.369-1.797C19.112 64.217 40.384 70.244 62.36 70.244c14.821 0 31.117-3.075 46.104-9.436 2.263-.96 4.155 1.488 1.944 3.123Z"/><path d="M115.97 57.575c-1.711-2.191-11.304-1.036-15.615-.523-1.307.157-1.507-.984-.333-1.811 7.658-5.376 20.198-3.827 21.657-2.025 1.469 1.816-.385 14.394-7.558 20.393-1.103.922-2.153.433-1.664-.789 1.616-4.031 5.229-13.058 3.518-15.249"/></g></svg>