<svg xmlns="http://www.w3.org/2000/svg" xml:space="preserve" fill-rule="evenodd" stroke-linejoin="round" stroke-miterlimit="2" clip-rule="evenodd" viewBox="0 0 369 149"><path fill="none" d="M0 0h369v149H0z"/><clipPath id="id-d864a8-a"><path d="M0 0h369v149H0z"/></clipPath><g fill="#fff" fill-rule="nonzero" clip-path="url(#id-d864a8-a)"><path d="M60.795 56.059h-8.597v-33.33q0-2.259.127-4.936t.346-5.701h-.219a80 80 0 0 1-.82 3.552q-.383 1.475-.747 2.349L35.55 56.058h-5.974L14.168 18.321q-.291-.8-.71-2.368a70 70 0 0 1-.892-3.861h-.219q.219 2.622.291 5.555.073 2.932.073 6.174v32.237H4.697V3.823h12.239l13.587 33.949a49 49 0 0 1 1.33 3.552q.528 1.621.82 3.005h.219q.656-2.076 1.238-3.752a57 57 0 0 1 1.093-2.914l13.769-33.84h11.802v52.235ZM74.73 11.547q-2.331 0-3.861-1.493t-1.53-3.679q0-2.259 1.53-3.715 1.53-1.457 3.861-1.457 2.368 0 3.898 1.457t1.53 3.715q0 2.222-1.53 3.697t-3.898 1.475m4.189 44.512h-8.487v-37.3h8.487zm36.701-2.294q-2.769 1.676-5.5 2.422t-5.937.747q-8.597 0-13.751-5.027-5.154-5.026-5.154-13.66 0-9.288 5.336-14.825t14.406-5.537q3.169 0 5.774.674t5.3 2.204l-3.315 5.901q-1.894-1.056-3.715-1.548-1.822-.492-3.97-.492-5.355 0-8.269 3.533t-2.914 9.361q0 6.12 3.151 9.398 3.15 3.279 7.923 3.278 1.456 0 3.351-.528 1.894-.528 3.825-1.694l3.46 5.792Zm25.664-27.903a12 12 0 0 0-1.33-.273 10.5 10.5 0 0 0-1.475-.091q-4.553 0-6.994 3.351t-2.441 8.742v18.468h-8.487v-37.3h8.487v7.176h.146q1.311-3.861 3.861-5.846t6.01-1.985q.984 0 1.767.109.783.11 1.512.328l-1.056 7.322Zm21.184 31.072q-8.742 0-13.86-5.227t-5.118-14.006q.036-9.288 5.318-14.552 5.281-5.264 14.388-5.264 8.779-.036 13.714 5.154t4.936 14.042q0 9.106-5.227 14.479t-14.151 5.373Zm.401-6.739q5.063 0 7.704-3.315t2.641-9.58q0-6.192-2.659-9.434-2.66-3.242-7.722-3.242-4.99 0-7.85 3.424t-2.859 9.471q0 6.083 2.841 9.38t7.904 3.297Zm21.73 2.878 3.679-5.974a21 21 0 0 0 4.644 2.459q2.459.929 5.336.929 3.132 0 4.863-1.147 1.73-1.147 1.73-3.442 0-1.821-1.439-3.042t-4.899-2.022q-6.994-1.64-9.817-4.335t-2.823-7.103q0-5.063 3.934-8.287t10.309-3.224q3.169 0 6.047.82t5.61 2.604l-3.424 5.828q-2.404-1.53-4.408-2.186a13.2 13.2 0 0 0-4.116-.656q-2.987 0-4.644 1.111-1.657 1.112-1.657 3.078 0 2.076 1.694 3.078t5.701 1.949q6.047 1.457 8.851 4.207t2.805 7.34q0 5.427-3.952 8.651t-10.691 3.224q-3.642 0-6.976-.965a24.4 24.4 0 0 1-6.356-2.896Zm50.106 3.861q-8.742 0-13.86-5.227t-5.118-14.006q.036-9.288 5.318-14.552 5.281-5.264 14.388-5.264 8.779-.036 13.714 5.154t4.936 14.042q0 9.106-5.227 14.479t-14.151 5.373Zm.401-6.739q5.063 0 7.704-3.315t2.641-9.58q0-6.192-2.659-9.434-2.66-3.242-7.722-3.242-4.99 0-7.85 3.424t-2.859 9.471q0 6.083 2.841 9.38t7.904 3.297Zm45.516-42.691a11 11 0 0 0-1.858-.565 9.5 9.5 0 0 0-1.821-.164q-2.696 0-4.061 1.548-1.366 1.548-1.366 4.462v5.974h8.633v6.63h-8.633V56.06h-8.451V25.389h-6.338v-6.63h6.338v-6.411q0-5.682 3.661-9.015T276.433 0q1.895 0 3.278.255t2.878.729z"/><path d="M304.246 55.549a16.4 16.4 0 0 1-3.424 1.02q-1.785.328-3.825.328-5.172 0-7.959-2.75t-2.787-8.214V25.389h-6.265v-6.63h6.265v-9.07l8.451-2.55v11.62h8.924v6.63h-8.924v19.852q0 2.732 1.002 3.934t3.114 1.202q1.02 0 1.949-.237a8.3 8.3 0 0 0 1.657-.601zM23.895 83.256a11 11 0 0 0-1.858-.565 9.5 9.5 0 0 0-1.821-.164q-2.696 0-4.061 1.548-1.366 1.548-1.366 4.462v5.974h8.633v6.63h-8.633v30.671H6.338v-30.671H0v-6.63h6.338V88.1q0-5.682 3.661-9.015t9.707-3.333q1.895 0 3.278.255t2.878.729zm19.873 49.43q-8.742 0-13.86-5.227t-5.118-14.006q.036-9.288 5.318-14.552t14.388-5.264q8.779-.036 13.714 5.154t4.936 14.042q0 9.106-5.227 14.479t-14.151 5.373Zm.401-6.739q5.062 0 7.704-3.315t2.641-9.58q0-6.192-2.659-9.434-2.66-3.242-7.722-3.242-4.99 0-7.85 3.424t-2.859 9.471q0 6.083 2.841 9.38t7.904 3.297Zm46.099-24.333a12 12 0 0 0-1.33-.273 10.5 10.5 0 0 0-1.475-.091q-4.553 0-6.994 3.351t-2.441 8.742v18.468h-8.487v-37.3h8.487v7.176h.146q1.311-3.861 3.861-5.846t6.01-1.985q.984 0 1.767.109.783.11 1.512.328l-1.056 7.322Zm19.419 26.445 3.861-6.666q3.533 2.185 6.593 3.078t6.848.892q4.517 0 7.121-1.949t2.604-5.591q0-3.315-2.167-5.227t-7.34-3.515q-7.977-2.367-11.729-5.865-3.752-3.496-3.752-9.471 0-6.484 4.845-10.764t13.15-4.28q3.642 0 7.176.801t6.994 2.477l-3.242 6.921q-3.023-1.566-5.774-2.222a24 24 0 0 0-5.591-.656q-4.153 0-6.538 1.821t-2.386 5.136q0 2.95 2.186 4.644t7.504 3.333q8.16 2.44 11.747 6.083 3.588 3.642 3.588 10.017 0 6.848-4.881 11.237-4.88 4.389-13.915 4.389-4.517 0-8.815-1.147a30.2 30.2 0 0 1-8.087-3.479Zm59.759 3.242a16.4 16.4 0 0 1-3.424 1.02q-1.785.328-3.825.328-5.172 0-7.959-2.75t-2.787-8.214v-20.544h-6.265v-6.63h6.265v-9.07l8.451-2.55v11.62h8.924v6.63h-8.924v19.852q0 2.732 1.002 3.934t3.114 1.202q1.02 0 1.949-.237a8.3 8.3 0 0 0 1.657-.601zm32.876.51h-8.196v-5.61h-.146q-1.894 3.241-4.699 4.863-2.805 1.621-6.447 1.621-5.063 0-8.414-3.005t-3.351-8.214q0-4.954 3.351-8.141t9.944-4.134l9.799-1.311v-.765q0-3.789-1.967-5.5-1.967-1.712-5.318-1.712-2.66 0-5.409.947-2.75.947-5.336 2.95l-3.679-5.063q3.424-2.622 7.067-3.861t8.014-1.238q7.504 0 11.146 3.697t3.643 11.092v23.385Zm-8.159-15.153v-3.169l-7.977 1.056q-3.534.51-5.3 1.912-1.767 1.403-1.767 4.098 0 2.732 1.676 4.262t4.298 1.53q4.116 0 6.593-2.75t2.477-6.939m37.138-15.044a12 12 0 0 0-1.33-.273 10.5 10.5 0 0 0-1.475-.091q-4.553 0-6.994 3.351t-2.441 8.742v18.468h-8.487v-37.3h8.487v7.176h.146q1.311-3.861 3.861-5.846t6.01-1.985q.984 0 1.767.109.783.11 1.512.328l-1.056 7.322Z"/><path d="M256.237 131.301a16.4 16.4 0 0 1-3.424 1.02q-1.785.328-3.825.328-5.172 0-7.959-2.75t-2.787-8.214v-20.544h-6.265v-6.63h6.265v-9.07l8.451-2.55v11.62h8.924v6.63h-8.924v19.852q0 2.732 1.002 3.934t3.114 1.202q1.02 0 1.949-.237a8.3 8.3 0 0 0 1.657-.601zm36.956.51h-8.487v-5.792h-.146q-1.966 3.315-4.845 4.99-2.877 1.676-6.63 1.676-6.575 0-9.862-3.943t-3.287-11.829V94.511h8.414v21.418q0 5.008 1.952 7.513t5.854 2.504q3.777 0 6.163-2.732t2.386-7.285V94.511h8.487zm17.359-4.917h-.146v22.074h-8.487V94.511h8.487v6.12h.146q2.149-3.497 5.282-5.245t7.176-1.748q7.212 0 11.237 4.99t4.025 13.441q0 9.361-4.59 14.989t-12.385 5.628q-3.496 0-6.192-1.439t-4.553-4.353m-.255-15.153v4.189q0 4.298 2.586 7.158 2.586 2.859 6.593 2.859 4.772 0 7.431-3.643 2.66-3.642 2.659-10.199 0-5.646-2.441-8.688t-6.848-3.042q-4.48 0-7.231 3.187t-2.75 8.178Zm30.728 17.083 3.679-5.974a21 21 0 0 0 4.644 2.459q2.459.929 5.336.929 3.132 0 4.863-1.147 1.73-1.147 1.73-3.442 0-1.821-1.439-3.042-1.438-1.22-4.899-2.022-6.994-1.64-9.817-4.335t-2.823-7.103q0-5.063 3.934-8.287t10.309-3.224q3.169 0 6.047.82t5.61 2.604l-3.424 5.828q-2.404-1.53-4.408-2.186a13.2 13.2 0 0 0-4.116-.656q-2.986 0-4.644 1.111t-1.657 3.078q0 2.076 1.694 3.078t5.701 1.949q6.047 1.457 8.851 4.207t2.805 7.34q0 5.427-3.952 8.651t-10.691 3.224q-3.643 0-6.976-.965a24.4 24.4 0 0 1-6.356-2.896Z"/></g></svg>