<svg xmlns="http://www.w3.org/2000/svg" xml:space="preserve" fill-rule="evenodd" stroke-linejoin="round" stroke-miterlimit="2" clip-rule="evenodd" viewBox="0 0 257 257"><path fill="none" d="M.974.048h256v256h-256z"/><clipPath id="id-c8c696-a"><path d="M.974.048h256v256h-256z"/></clipPath><g fill="#fff" clip-path="url(#id-c8c696-a)"><path d="M256.974 130.899c0-10.531-.873-18.211-2.746-26.182H131.581v47.511h71.983c-1.443 11.799-9.274 29.58-26.694 41.53l-.244 1.583 38.772 29.44 2.676.256c24.692-22.319 38.9-55.18 38.9-94.138"/><path d="M131.593 256.048c35.258 0 64.861-11.38 86.493-31.011l-41.216-31.279c-11.031 7.54-25.833 12.8-45.277 12.8-33.52.003-63.511-21.468-74.31-53.201l-1.536.128-40.32 30.58-.524 1.443c21.481 41.809 65.606 70.54 116.689 70.54Z"/><path d="M57.294 153.357a77.4 77.4 0 0 1-4.387-25.309c0-8.82 1.606-17.35 4.201-25.309l-.07-1.711-40.82-31.069-1.338.628a126 126 0 0 0-13.905 57.46c0 20.62 5.073 40.111 13.929 57.46l42.38-32.151h.012Z"/><path d="M131.593 49.538c24.529 0 41.065 10.38 50.502 19.06l36.852-35.27C196.314 12.708 166.851.048 131.593.048c-51.095 0-95.209 28.73-116.689 70.54l42.24 32.151c10.891-31.727 40.905-53.175 74.449-53.201"/></g></svg>