<svg xmlns="http://www.w3.org/2000/svg" xml:space="preserve" fill-rule="evenodd" stroke-linejoin="round" stroke-miterlimit="2" clip-rule="evenodd" viewBox="0 0 256 256"><path fill="none" d="M0 0h256v256H0z"/><path fill="#fff" d="M256 20v216c0 11.038-8.962 20-20 20H20c-11.038 0-20-8.962-20-20V20C0 8.962 8.962 0 20 0h216c11.038 0 20 8.962 20 20M32 64v128h-8V64zm140 0c35.346 0 64 28.654 64 64s-28.654 64-64 64-64-28.654-64-64 28.654-64 64-64m-64 0L56.424 191.997h-8.428L99.576 64zm64 8c-30.928 0-56 25.072-56 56s25.072 56 56 56 56-25.072 56-56-25.072-56-56-56"/></svg>