<svg xmlns="http://www.w3.org/2000/svg" xml:space="preserve" fill-rule="evenodd" stroke-linejoin="round" stroke-miterlimit="2" clip-rule="evenodd" viewBox="0 0 256 256"><path fill="none" d="M0 0h256v256H0z"/><path fill="#fff" fill-rule="nonzero" d="M100.926 174.855v-16.871l-46.875 13.292s3.464-20.125 27.91-27.06c7.414-2.101 13.739-2.087 18.965-1.078v-69.2h23.47c-2.556-7.897-5.028-13.976-7.104-18.201-3.435-6.992-6.956-2.357-14.95 4.329-5.63 4.703-19.859 14.737-41.271 20.507-21.412 5.774-38.723 4.242-45.946 2.992C4.886 81.798-.47 79.55.031 87.338c.436 6.869 2.072 17.52 5.821 31.587 8.109 30.462 34.91 89.159 85.559 75.518 13.23-3.565 22.569-10.611 29.042-19.592h-19.527zm-75.64-55.511 35.995-9.482s-1.049 13.847-14.543 17.404c-13.498 3.554-21.452-7.922-21.452-7.922"/><path fill="#fff" fill-rule="nonzero" d="M236.392 74.738c-9.356 1.64-31.803 3.684-59.544-3.752-27.748-7.431-46.159-20.428-53.453-26.537-10.34-8.661-14.889-14.68-19.365-5.576-3.957 8.03-9.018 21.099-13.916 39.393-10.614 39.616-18.547 123.218 47.066 140.81 65.6 17.577 100.523-58.795 111.138-98.415 4.898-18.291 7.046-32.142 7.637-41.072.674-10.117-6.275-7.18-19.563-4.852Zm-131.829 32.776s10.34-16.082 27.878-11.097c17.549 4.985 18.908 24.386 18.908 24.386l-46.785-13.288Zm42.81 72.166c-30.847-9.036-35.605-33.635-35.605-33.635l82.866 23.168c0-.004-16.727 19.39-47.261 10.466Zm29.298-50.552s10.326-16.071 27.86-11.072c17.534 4.992 18.914 24.393 18.914 24.393l-46.775-13.321Z"/></svg>