<svg xmlns="http://www.w3.org/2000/svg" xml:space="preserve" fill-rule="evenodd" stroke-linejoin="round" stroke-miterlimit="2" clip-rule="evenodd" viewBox="0 0 257 257"><path fill="none" d="M.974.048h256v256h-256z"/><clipPath id="id-407152-a"><path d="M.974.048h256v256h-256z"/></clipPath><g fill="#fff" fill-rule="nonzero" clip-path="url(#id-407152-a)"><path d="M189.832 113.2c-1.571 3.552-3.21 7.035-5.123 10.382-20.559-25.477-50.612-42.075-83.808-46.309a139 139 0 0 0-16.871-1.025c-29.848 0-58.74 10.041-81.622 28.551C13.541 37.111 79.044-9.13 148.918 1.593c13.934 2.186 27.458 6.42 39.821 12.909v.137c2.732 6.011 4.986 12.09 6.625 18.305 7.513 26.57 5.533 54.916-5.533 80.256Z"/><path d="M174.259 240.38c-66.117 24.316-140.021-7.923-165.088-72.06-4.781-12.09-7.513-24.862-8.196-37.908v-.137c17.212-23.633 42.416-40.572 71.308-48.017 5.464-1.366 11.065-2.527 16.666-3.21 3.893-.478 7.855-.82 11.68-.888-26.16 63.727 5.806 135.923 71.513 161.263.683.41 1.366.751 2.117.956Z"/><path d="M256.974 124.265c0 36.952-17.007 72.128-46.446 95.624-4.85 3.893-10.45 7.923-13.046 9.221-35.517-3.483-67.961-21.106-89.613-48.632-2.391-3.142-4.645-6.216-6.625-9.426 63.385-8.265 110.787-60.926 110.787-123.013 0-6.42-.478-13.046-1.571-19.33 29.507 23.496 46.651 58.467 46.514 95.556"/></g></svg>