<svg xmlns="http://www.w3.org/2000/svg" xml:space="preserve" fill-rule="evenodd" stroke-linejoin="round" stroke-miterlimit="2" clip-rule="evenodd" viewBox="0 0 257 257"><path fill="none" d="M.974.048h256v256h-256z"/><clipPath id="id-e422ef-a"><path d="M.974.048h256v256h-256z"/></clipPath><g clip-path="url(#id-e422ef-a)"><path fill="#fff" d="M256.974 20.366v215.365c0 11.214-9.104 20.317-20.317 20.317H21.292c-11.214 0-20.317-9.104-20.317-20.317V20.366C.975 9.152 10.079.049 21.292.049h215.365c11.214 0 20.317 9.104 20.317 20.317M172.941 200.05c5.157 8.42 11.865 14.608 23.731 14.608 9.968 0 16.335-4.982 16.335-11.865 0-8.249-6.542-11.171-17.514-15.97l-6.014-2.58c-17.359-7.396-28.891-16.66-28.891-36.246 0-18.042 13.747-31.777 35.23-31.777 15.295 0 26.291 5.323 34.215 19.261L211.3 147.509c-4.124-7.396-8.574-10.309-15.482-10.309-7.046 0-11.512 4.47-11.512 10.309 0 7.217 4.47 10.138 14.791 14.608l6.014 2.576c20.439 8.765 31.98 17.701 31.98 37.79 0 21.658-17.014 33.524-39.863 33.524-22.341 0-36.775-10.646-43.837-24.6zm-84.98 2.085c3.779 6.705 7.217 12.373 15.482 12.373 7.903 0 12.889-3.092 12.889-15.116v-81.798h24.056v82.123c0 24.909-14.604 36.246-35.921 36.246-19.261 0-30.415-9.968-36.088-21.973z"/></g></svg>