<svg xmlns="http://www.w3.org/2000/svg" xml:space="preserve" fill-rule="evenodd" stroke-linejoin="round" stroke-miterlimit="2" clip-rule="evenodd" viewBox="0 0 257 257"><path fill="none" d="M.974.048h256v256h-256z"/><path fill="#fff" fill-rule="nonzero" d="M95.378 198.027s-9.783 5.689 6.962 7.614c20.286 2.314 30.654 1.982 53.009-2.249 0 0 5.877 3.685 14.086 6.877-50.115 21.478-113.42-1.244-74.057-12.243m-6.123-28.027s-10.972 8.122 5.785 9.855c21.67 2.236 38.784 2.418 68.396-3.284 0 0 4.096 4.152 10.536 6.423-60.592 17.718-128.08 1.397-84.718-12.995m51.626-47.543c12.348 14.217-3.244 27.01-3.244 27.01s31.354-16.186 16.955-36.455c-13.449-18.902-23.762-28.294 32.071-60.675 0 0-87.639 21.888-45.781 70.119"/><path fill="#fff" fill-rule="nonzero" d="M207.161 218.758s7.24 5.965-7.973 10.58c-28.927 8.763-120.397 11.409-145.807.349-9.134-3.974 7.995-9.488 13.383-10.645 5.619-1.219 8.831-.992 8.831-.992-10.158-7.156-65.659 14.051-28.191 20.125 102.178 16.57 186.261-7.462 159.758-19.417m-107.079-77.799s-46.528 11.051-16.477 15.064c12.688 1.699 37.983 1.314 61.543-.66 19.255-1.624 38.59-5.078 38.59-5.078s-6.79 2.908-11.702 6.262c-47.248 12.426-138.522 6.645-112.245-6.065 22.222-10.742 40.291-9.523 40.291-9.523m83.465 46.654c48.03-24.958 25.823-48.943 10.322-45.711-3.799.791-5.493 1.476-5.493 1.476s1.41-2.209 4.104-3.166c30.664-10.781 54.247 31.796-9.899 48.659 0 .001.743-.664.965-1.258M154.59.048s26.6 26.609-25.229 67.525c-41.561 32.822-9.477 51.536-.017 72.918-24.26-21.888-42.063-41.157-30.119-59.09C116.756 55.077 165.322 42.314 154.59.048"/><path fill="#fff" fill-rule="nonzero" d="M104.802 255.243c46.102 2.951 116.898-1.637 118.575-23.452 0 0-3.223 8.27-38.101 14.837-39.349 7.405-87.881 6.541-116.666 1.795.001-.001 5.893 4.877 36.193 6.82"/></svg>