<svg xmlns="http://www.w3.org/2000/svg" xml:space="preserve" fill-rule="evenodd" stroke-linejoin="round" stroke-miterlimit="2" clip-rule="evenodd" viewBox="0 0 256 256"><path fill="none" d="M0 0h256v256H0z"/><clipPath id="a"><path d="M0 0h256v256H0z"/></clipPath><g fill="#fff" fill-rule="nonzero" clip-path="url(#a)"><path d="M127.565 0C67.123 0 66.474 23.461 66.474 28.29V57.6h62.255v8.799H41.747C23.248 66.399 0 77.647 0 127.49c0 45.784 18.134 63.49 36.436 63.49h21.746v-30.545c0-12.779 6.333-36.436 35.854-36.436h61.745c9.081 0 34.69-3.947 34.69-33.527V34.108c.002-7.338-1.252-34.109-62.906-34.109ZM93.238 19.71a11.19 11.19 0 0 1 11.201 11.201 11.19 11.19 0 0 1-11.201 11.201 11.19 11.19 0 0 1-11.201-11.201A11.19 11.19 0 0 1 93.238 19.71"/><path d="M128.435 256c60.414 0 61.165-23.903 61.165-28.29V198.4h-62.329v-8.799h86.982c18.639 0 41.747-11.529 41.747-61.091 0-54.277-24.525-63.49-36.436-63.49h-21.746v30.545c0 12.779-6.123 36.436-35.854 36.436h-61.747c-9.058 0-34.69 4.413-34.69 33.527v56.364c0 12.172 7.438 34.109 62.909 34.109Zm34.33-19.71a11.19 11.19 0 0 1-11.201-11.201 11.19 11.19 0 0 1 11.201-11.201 11.19 11.19 0 0 1 11.201 11.201 11.19 11.19 0 0 1-11.201 11.201"/></g></svg>