<svg xmlns="http://www.w3.org/2000/svg" xml:space="preserve" fill-rule="evenodd" stroke-linejoin="round" stroke-miterlimit="2" clip-rule="evenodd" viewBox="0 0 257 257"><path fill="none" d="M.974.048h256v256h-256z"/><clipPath id="id-4de121-a"><path d="M.974.048h256v256h-256z"/></clipPath><g fill="#fff" fill-rule="nonzero" clip-path="url(#id-4de121-a)"><path d="M128.539.048c-60.442 0-61.091 23.461-61.091 28.29v29.31h62.255v8.799H42.721C24.222 66.447.974 77.695.974 127.538c0 45.784 18.134 63.49 36.436 63.49h21.746v-30.545c0-12.779 6.333-36.436 35.854-36.436h61.745c9.081 0 34.69-3.947 34.69-33.527V34.156c.002-7.338-1.252-34.109-62.906-34.109Zm-34.327 19.71a11.19 11.19 0 0 1 11.201 11.201A11.19 11.19 0 0 1 94.212 42.16a11.19 11.19 0 0 1-11.201-11.201 11.19 11.19 0 0 1 11.201-11.201"/><path d="M129.41 256.048c60.414 0 61.165-23.903 61.165-28.29v-29.31h-62.329v-8.799h86.982c18.639 0 41.747-11.529 41.747-61.091 0-54.277-24.525-63.49-36.436-63.49h-21.746v30.545c0 12.779-6.123 36.436-35.854 36.436h-61.747c-9.058 0-34.69 4.413-34.69 33.527v56.364c0 12.172 7.438 34.109 62.909 34.109Zm34.33-19.71a11.19 11.19 0 0 1-11.201-11.201 11.19 11.19 0 0 1 11.201-11.201 11.19 11.19 0 0 1 11.201 11.201 11.19 11.19 0 0 1-11.201 11.201"/></g></svg>