<svg xmlns="http://www.w3.org/2000/svg" xml:space="preserve" fill-rule="evenodd" stroke-linejoin="round" stroke-miterlimit="2" clip-rule="evenodd" viewBox="0 0 256 256"><path fill="none" d="M0 0h256v256H0z"/><clipPath id="a"><path d="M0 0h256v256H0z"/></clipPath><g clip-path="url(#a)"><path fill="#fff" d="M256 20.317v215.365c0 11.214-9.104 20.317-20.317 20.317H20.318c-11.214 0-20.317-9.104-20.317-20.317V20.317C.001 9.103 9.105 0 20.318 0h215.365C246.897 0 256 9.104 256 20.317m-84.033 179.684c5.157 8.42 11.865 14.608 23.731 14.608 9.968 0 16.335-4.982 16.335-11.865 0-8.249-6.542-11.171-17.514-15.97l-6.014-2.58c-17.359-7.396-28.891-16.66-28.891-36.246 0-18.042 13.747-31.777 35.23-31.777 15.295 0 26.291 5.323 34.215 19.261l-18.733 12.028c-4.124-7.396-8.574-10.309-15.482-10.309-7.046 0-11.512 4.47-11.512 10.309 0 7.217 4.47 10.138 14.791 14.608l6.014 2.576c20.439 8.765 31.98 17.701 31.98 37.79 0 21.658-17.014 33.524-39.863 33.524-22.341 0-36.775-10.646-43.837-24.6l19.549-11.357Zm-84.98 2.085c3.779 6.705 7.217 12.373 15.482 12.373 7.903 0 12.889-3.092 12.889-15.116v-81.798h24.056v82.123c0 24.909-14.604 36.246-35.921 36.246-19.261 0-30.415-9.968-36.088-21.973z"/></g></svg>