<svg xmlns="http://www.w3.org/2000/svg" xml:space="preserve" fill-rule="evenodd" stroke-linejoin="round" stroke-miterlimit="2" clip-rule="evenodd" viewBox="0 0 256 257"><path fill="none" d="M0 .048h256v256H0z"/><clipPath id="id-93e41b-a"><path d="M0 .048h256v256H0z"/></clipPath><g clip-path="url(#id-93e41b-a)"><path fill="#fff" d="M66.337 1.094c3.253.989 6.189 2.618 8.855 4.771 4.442 3.561 8.192 8.657 11.053 14.696 2.876 6.074 4.743 12.8 5.451 19.549 9.481-4.145 20.004-6.668 30.856-7.401l.768-.047c13.101-.815 26.052 1.012 37.346 5.516 1.52.617 3.012 1.28 4.473 1.978.752-6.621 2.59-13.195 5.421-19.13 2.861-6.051 6.611-11.136 11.038-14.708 2.474-2.068 5.5-3.696 8.869-4.771 3.87-1.164 7.982-1.373 11.987-.489 6.039 1.327 11.218 4.282 15.3 8.576 3.735 3.921 6.535 8.948 8.448 14.976 3.463 10.868 4.066 25.169 1.732 42.414l.798.465.391.221c11.4 6.702 19.336 16.256 23.538 27.345 6.55 17.304 3.252 36.712-8.042 47.569l-.272.244.03.035c6.28 8.867 10.09 18.234 10.904 27.927l.029.349c.965 12.392-3.012 24.867-12.258 37.119l-.106.117.151.279c7.109 13.463 9.338 27.019 6.597 40.564l-.091.453c-.424 1.979-1.848 3.747-3.956 4.915-2.109 1.168-4.732 1.646-7.293 1.322a11.7 11.7 0 0 1-3.581-1.015c-1.095-.517-2.048-1.196-2.803-2-.756-.8-1.299-1.71-1.599-2.676a5.86 5.86 0 0 1-.148-2.944c2.514-12.02.15-24.075-7.228-36.339-.688-1.139-.995-2.395-.89-3.65.106-1.254.619-2.469 1.492-3.53l.059-.069c9.096-10.752 12.86-21.295 12.048-31.651-.693-9.064-4.894-17.967-12.048-26.449-1.391-1.648-1.886-3.654-1.38-5.584.507-1.929 1.977-3.627 4.091-4.726l.135-.069c3.66-1.851 7.033-6.575 8.734-13.033 1.878-7.636 1.388-15.507-1.43-22.97-3.088-8.145-8.734-14.941-16.64-19.584-8.96-5.283-20.826-7.831-35.84-7.098-1.964.099-3.92-.26-5.616-1.03-1.697-.77-3.056-1.915-3.901-3.287-4.729-7.738-11.625-13.277-20.224-16.71-8.255-3.184-17.498-4.522-26.684-3.863-18.748 1.152-35.283 9.321-40.207 19.619-.697 1.449-1.95 2.7-3.592 3.584s-3.594 1.359-5.594 1.362c-16.068.023-28.506 2.932-37.602 8.18-7.861 4.538-13.222 10.88-16.053 18.478-2.562 7.152-2.913 14.67-1.024 21.946 1.687 6.492 4.984 11.868 8.764 14.766l.121.081c3.192 2.409 3.87 6.168 1.641 9.135-5.421 7.237-9.472 18.024-10.135 28.392-.753 11.845 2.801 22.132 10.827 29.509l.241.221c1.211 1.091 1.99 2.428 2.244 3.852s-.029 2.874-.813 4.177c-8.674 14.382-11.339 26.204-8.463 35.514.517 1.936.036 3.952-1.341 5.616-1.377 1.666-3.54 2.851-6.03 3.302-2.49.453-5.11.134-7.302-.882-2.193-1.019-3.784-2.658-4.436-4.569-3.659-11.845-1.175-25.413 7.123-40.703l.211-.407-.12-.14c-4.078-4.655-7.122-9.803-9.005-15.232l-.075-.221c-2.286-6.773-3.185-13.782-2.665-20.771.663-10.588 4.186-21.434 9.367-30.138l.181-.303-.03-.023c-4.412-4.864-7.68-11.089-9.487-17.978l-.075-.28c-2.49-9.608-2.01-19.536 1.4-28.974 3.945-10.647 11.701-19.793 23.13-26.403a65 65 0 0 1 2.801-1.536c-2.394-17.373-1.792-31.767 1.687-42.705 1.913-6.028 4.728-11.054 8.463-14.976 4.066-4.282 9.246-7.238 15.285-8.576 4.006-.884 8.132-.675 12.002.5Zm61.982 105.772c14.095 0 27.106 3.643 36.834 9.949 9.488 6.132 15.134 14.371 15.134 22.575 0 10.332-6.114 18.384-17.061 23.528-9.337 4.363-21.85 6.481-36.186 6.481-15.194 0-28.176-3.014-37.542-8.541-9.291-5.469-14.502-13.149-14.502-21.468 0-8.227 5.993-16.489 15.902-22.644 10.06-6.249 23.341-9.88 37.421-9.88m0 10.427c-10.448-.07-20.618 2.596-28.853 7.563-6.942 4.305-10.872 9.717-10.872 14.545 0 4.981 3.162 9.647 9.185 13.196 6.853 4.037 16.926 6.376 29.26 6.376 12.032 0 22.181-1.711 29.093-4.956 6.972-3.259 10.542-7.983 10.542-14.627 0-4.923-3.705-10.357-10.286-14.616-7.289-4.712-17.167-7.482-28.069-7.482Zm9.968 14.08.06.047c1.808 1.756 1.431 4.305-.843 5.701l-4.397 2.676v5.189c-.008 1.156-.609 2.261-1.67 3.075s-2.497 1.269-3.992 1.266c-1.496.003-2.931-.453-3.993-1.266-1.061-.814-1.662-1.919-1.669-3.075v-5.352l-4.081-2.537a4.5 4.5 0 0 1-1.317-1.213 3.4 3.4 0 0 1-.612-1.511 3.2 3.2 0 0 1 .187-1.577c.197-.511.522-.987.958-1.4.889-.836 2.169-1.367 3.561-1.478s2.787.208 3.877.885l3.237 2.001 3.313-2.024c1.087-.664 2.467-.974 3.845-.863 1.379.112 2.646.634 3.533 1.456Zm-75.896-22.33c7.198 0 13.056 4.539 13.056 10.136.004 2.683-1.37 5.257-3.821 7.158-2.451 1.9-5.778 2.971-9.25 2.977-3.467-.009-6.788-1.08-9.235-2.977-2.447-1.898-3.821-4.468-3.821-7.147-.008-2.683 1.362-5.258 3.81-7.161s5.789-2.976 9.261-2.986m131.102 0c7.228 0 13.071 4.539 13.071 10.136.005 2.683-1.37 5.257-3.821 7.158-2.451 1.9-5.778 2.971-9.25 2.977-3.467-.009-6.788-1.08-9.235-2.977-2.447-1.898-3.821-4.468-3.821-7.147-.008-2.683 1.362-5.258 3.811-7.161s5.773-2.976 9.245-2.986M59.334 15.174l-.045.023c-1.745.586-3.234 1.548-4.292 2.769l-.075.07c-2.078 2.199-3.885 5.434-5.24 9.681-2.56 8.052-3.253 18.979-1.867 32.372 6.475-1.489 13.538-2.42 21.143-2.758l.151-.012.286-.396a38 38 0 0 1 2.229-2.781c1.852-8.972.331-19.688-3.81-28.439-2.018-4.236-4.472-7.564-6.822-9.46a9.3 9.3 0 0 0-1.611-1.047l-.045-.023Zm138.15.465-.03.012a9.4 9.4 0 0 0-1.612 1.047c-2.349 1.897-4.818 5.236-6.821 9.472-4.367 9.239-5.828 20.666-3.463 29.928l.873 1.129.121.163h.452a99.6 99.6 0 0 1 22.076 2.467c1.295-13.079.572-23.773-1.927-31.674-1.356-4.247-3.163-7.482-5.256-9.681l-.059-.07c-1.056-1.226-2.545-2.192-4.293-2.781l-.059-.012Z"/></g></svg>