<?xml version="1.0" encoding="UTF-8" standalone="no"?><!DOCTYPE svg PUBLIC "-//W3C//DTD SVG 1.1//EN" "http://www.w3.org/Graphics/SVG/1.1/DTD/svg11.dtd"><svg width="100%" height="100%" viewBox="0 0 512 512" version="1.1" xmlns="http://www.w3.org/2000/svg" xmlns:xlink="http://www.w3.org/1999/xlink" xml:space="preserve" xmlns:serif="http://www.serif.com/" style="fill-rule:evenodd;clip-rule:evenodd;stroke-linecap:square;stroke-miterlimit:2;"><rect id="Artboard1" x="-0" y="0" width="512" height="512" style="fill:none;"/><clipPath id="_clip1"><rect id="Artboard11" serif:id="Artboard1" x="-0" y="0" width="512" height="512"/></clipPath><g clip-path="url(#_clip1)"><g><rect x="-0" y="-0" width="512" height="512" style="fill:#044cc7;"/><g transform="translate(256 256) scale(0.75) translate(-203.8945 -326.909)"><path d="M110.943,436l20.029,-57.741l85.227,-0l19.922,57.741l34.943,0l-78.516,-218.182l-38.032,0l-78.516,218.182l34.943,0Zm29.617,-85.44l32.173,-93.111l1.704,-0l32.174,93.111l-66.051,-0Z" style="fill:#fff;fill-rule:nonzero;"/><rect x="299.935" y="217.818" width="31.854" height="218.182" style="fill:#fff;fill-rule:nonzero;"/></g></g><g><g><path d="M0,256.002l512,0" style="fill:none;stroke:#fff;stroke-opacity:0.2;stroke-width:3px;"/></g><g><path d="M0,46l512,-0" style="fill:none;stroke:#fff;stroke-opacity:0.2;stroke-width:3px;"/></g><g><path d="M0,466l512,-0" style="fill:none;stroke:#fff;stroke-opacity:0.2;stroke-width:3px;"/></g></g><g><g><path d="M255.998,0l-0,512" style="fill:none;stroke:#fff;stroke-opacity:0.2;stroke-width:3px;"/></g><g><path d="M466,0l0,512" style="fill:none;stroke:#fff;stroke-opacity:0.2;stroke-width:3px;"/></g><g><path d="M46,0l0,512" style="fill:none;stroke:#fff;stroke-opacity:0.2;stroke-width:3px;"/></g></g><g><g><path d="M466,241l-0,30" style="fill:none;stroke:#fff;stroke-opacity:0.25;stroke-width:3px;stroke-linejoin:round;stroke-miterlimit:1.5;"/><path d="M451,256l30,-0" style="fill:none;stroke:#fff;stroke-opacity:0.25;stroke-width:3px;stroke-linejoin:round;stroke-miterlimit:1.5;"/></g><g><path d="M46,241l-0,30" style="fill:none;stroke:#fff;stroke-opacity:0.25;stroke-width:3px;stroke-linejoin:round;stroke-miterlimit:1.5;"/><path d="M31,256l30,-0" style="fill:none;stroke:#fff;stroke-opacity:0.25;stroke-width:3px;stroke-linejoin:round;stroke-miterlimit:1.5;"/></g><g><path d="M256,241l-0,30" style="fill:none;stroke:#fff;stroke-opacity:0.25;stroke-width:3px;stroke-linejoin:round;stroke-miterlimit:1.5;"/><path d="M241,256l30,-0" style="fill:none;stroke:#fff;stroke-opacity:0.25;stroke-width:3px;stroke-linejoin:round;stroke-miterlimit:1.5;"/></g></g><g><g><path d="M466,451l-0,30" style="fill:none;stroke:#fff;stroke-opacity:0.25;stroke-width:3px;stroke-linejoin:round;stroke-miterlimit:1.5;"/><path d="M451,466l30,0" style="fill:none;stroke:#fff;stroke-opacity:0.25;stroke-width:3px;stroke-linejoin:round;stroke-miterlimit:1.5;"/></g><g><path d="M46,451l-0,30" style="fill:none;stroke:#fff;stroke-opacity:0.25;stroke-width:3px;stroke-linejoin:round;stroke-miterlimit:1.5;"/><path d="M31,466l30,0" style="fill:none;stroke:#fff;stroke-opacity:0.25;stroke-width:3px;stroke-linejoin:round;stroke-miterlimit:1.5;"/></g><g><path d="M256,451l-0,30" style="fill:none;stroke:#fff;stroke-opacity:0.25;stroke-width:3px;stroke-linejoin:round;stroke-miterlimit:1.5;"/><path d="M241,466l30,0" style="fill:none;stroke:#fff;stroke-opacity:0.25;stroke-width:3px;stroke-linejoin:round;stroke-miterlimit:1.5;"/></g></g><g><g><path d="M466,31l-0,30" style="fill:none;stroke:#fff;stroke-opacity:0.25;stroke-width:3px;stroke-linejoin:round;stroke-miterlimit:1.5;"/><path d="M451,46l30,-0" style="fill:none;stroke:#fff;stroke-opacity:0.25;stroke-width:3px;stroke-linejoin:round;stroke-miterlimit:1.5;"/></g><g><path d="M46,31l-0,30" style="fill:none;stroke:#fff;stroke-opacity:0.25;stroke-width:3px;stroke-linejoin:round;stroke-miterlimit:1.5;"/><path d="M31,46l30,-0" style="fill:none;stroke:#fff;stroke-opacity:0.25;stroke-width:3px;stroke-linejoin:round;stroke-miterlimit:1.5;"/></g><g><path d="M256,31l-0,30" style="fill:none;stroke:#fff;stroke-opacity:0.25;stroke-width:3px;stroke-linejoin:round;stroke-miterlimit:1.5;"/><path d="M241,46l30,-0" style="fill:none;stroke:#fff;stroke-opacity:0.25;stroke-width:3px;stroke-linejoin:round;stroke-miterlimit:1.5;"/></g></g></g></svg>