<svg xmlns="http://www.w3.org/2000/svg" xml:space="preserve" fill-rule="evenodd" stroke-linejoin="round" stroke-miterlimit="2" clip-rule="evenodd" viewBox="0 0 512 512"><path fill="none" d="M0 0h512v512H0z"/><path fill="#044cc7" d="M0 0h512v512H0z"/><path fill="#fff" fill-rule="nonzero" d="M390.876 430.955q-8.07-1.291-12.299-6.276-5.708-6.727-5.708-20.715l.129-220.921-40.444-.044v224.582q-.05 17.774 6.932 30.831 6.98 13.058 20.448 20.09 5.382 2.81 11.739 4.498M50 463l101.01-280h51.108l101.071 280h-45.714l-54.103-157.209q-6.524-19.714-14.159-44.188-7.634-24.477-18.099-60.064h10.753q-10.435 35.69-18.078 60.269-7.64 24.576-14.132 43.982L95.046 462.999zm55.595-73.06v-35.584h142.023v35.584z"/></svg>