<?xml version="1.0" encoding="UTF-8" standalone="no"?>
<!DOCTYPE svg PUBLIC "-//W3C//DTD SVG 1.1//EN" "http://www.w3.org/Graphics/SVG/1.1/DTD/svg11.dtd">
<svg width="100%" height="100%" viewBox="0 0 512 512" version="1.1" xmlns="http://www.w3.org/2000/svg" xmlns:xlink="http://www.w3.org/1999/xlink" xml:space="preserve" xmlns:serif="http://www.serif.com/" style="fill-rule:evenodd;clip-rule:evenodd;stroke-linecap:square;stroke-miterlimit:2;">
    <rect id="Icon" x="0" y="-0" width="512" height="512" style="fill:none;"/>
    <clipPath id="_clip1">
        <rect x="0" y="-0" width="512" height="512"/>
    </clipPath>
    <g clip-path="url(#_clip1)">
        <g>
            <rect x="0" y="-0" width="512" height="512" style="fill:#044cc7;"/>
            <g transform="matrix(1.007838,0,0,1.007838,-3405.556024,-1087.567614)">
                <g>
                    <g transform="matrix(90,0,0,90,3445.814216,1215.039996)">
                        <path d="M0.315,-0.728l0,0.728l-0.107,-0l0,-0.623l-0.002,0l-0.176,0.12l0,-0.107l0.174,-0.118l0.111,0Z" style="fill:#8da8d7;fill-rule:nonzero;"/>
                    </g>
                    <g transform="matrix(90,0,0,90,3480.531013,1215.039996)">
                        <path d="M0.308,0.011c-0.052,0 -0.098,-0.01 -0.137,-0.03c-0.039,-0.02 -0.069,-0.047 -0.091,-0.081c-0.022,-0.035 -0.033,-0.074 -0.033,-0.118l0.109,0c0.001,0.029 0.007,0.053 0.019,0.074c0.012,0.021 0.03,0.036 0.052,0.047c0.022,0.011 0.049,0.016 0.079,0.016c0.03,0 0.056,-0.005 0.079,-0.015c0.023,-0.01 0.041,-0.025 0.054,-0.044c0.013,-0.019 0.019,-0.041 0.019,-0.066c0,-0.024 -0.007,-0.045 -0.02,-0.064c-0.014,-0.018 -0.033,-0.032 -0.057,-0.042c-0.024,-0.01 -0.053,-0.015 -0.087,-0.015l-0.061,0l0,-0.089l0.061,0c0.029,0 0.054,-0.005 0.075,-0.014c0.022,-0.009 0.038,-0.022 0.05,-0.039c0.012,-0.017 0.018,-0.036 0.018,-0.059c0,-0.024 -0.006,-0.045 -0.017,-0.063c-0.011,-0.018 -0.026,-0.031 -0.046,-0.041c-0.02,-0.01 -0.043,-0.015 -0.07,-0.015c-0.027,0 -0.051,0.005 -0.071,0.015c-0.021,0.01 -0.037,0.025 -0.049,0.043c-0.012,0.019 -0.018,0.041 -0.018,0.067l-0.105,0c0,-0.042 0.011,-0.08 0.032,-0.113c0.021,-0.033 0.05,-0.058 0.086,-0.077c0.037,-0.018 0.078,-0.028 0.126,-0.028c0.046,0 0.088,0.009 0.123,0.027c0.036,0.018 0.064,0.042 0.084,0.072c0.02,0.03 0.03,0.065 0.03,0.103c0,0.039 -0.012,0.073 -0.036,0.101c-0.024,0.028 -0.055,0.048 -0.095,0.058l0,0.003c0.032,0.005 0.06,0.015 0.083,0.031c0.023,0.016 0.041,0.036 0.053,0.06c0.012,0.024 0.019,0.051 0.019,0.08c0,0.042 -0.011,0.078 -0.034,0.111c-0.022,0.032 -0.053,0.058 -0.092,0.076c-0.039,0.018 -0.084,0.028 -0.134,0.028Z" style="fill:#8da8d7;fill-rule:nonzero;"/>
                    </g>
                </g>
            </g>
            <g id="AL-New" serif:id="AL New">
                <path id="Custom-L-v2" serif:id="Custom L v2" d="M337.831,416.822c-4.227,-0.676 -7.448,-2.32 -9.663,-4.931c-2.99,-3.524 -4.485,-8.949 -4.485,-16.276l0.101,-173.58l-31.777,-0.035l0,176.457c-0.026,9.31 1.789,17.384 5.447,24.224c3.656,6.84 9.011,12.101 16.066,15.785c2.819,1.472 5.894,2.65 9.224,3.534" style="fill:#fff;fill-rule:nonzero;"/>
                <path id="Inter-A" serif:id="Inter A" d="M70,442l79.365,-220l40.156,0l79.413,220l-35.918,0l-42.51,-123.522c-3.418,-10.326 -7.126,-21.899 -11.125,-34.719c-3.999,-12.821 -8.739,-28.552 -14.221,-47.193l8.448,0c-5.466,18.695 -10.201,34.48 -14.204,47.354c-4.002,12.873 -7.703,24.392 -11.104,34.557l-42.909,123.522l-35.392,0Zm43.682,-57.404l0,-27.959l111.59,0l0,27.959l-111.59,0Z" style="fill:#fff;fill-rule:nonzero;"/>
            </g>
        </g>
        <g id="Patterns">
            <g opacity="0.5">
                <g>
                    <path d="M0,256.002l512,0" style="fill:none;stroke:#fff;stroke-opacity:0.2;stroke-width:3px;"/>
                </g>
                <g>
                    <path d="M0,46l512,0" style="fill:none;stroke:#fff;stroke-opacity:0.2;stroke-width:3px;"/>
                </g>
                <g>
                    <path d="M0,466l512,0" style="fill:none;stroke:#fff;stroke-opacity:0.2;stroke-width:3px;"/>
                </g>
            </g>
            <g opacity="0.5">
                <g>
                    <path d="M255.998,-0l0,512" style="fill:none;stroke:#fff;stroke-opacity:0.2;stroke-width:3px;"/>
                </g>
                <g>
                    <path d="M466,-0l0,512" style="fill:none;stroke:#fff;stroke-opacity:0.2;stroke-width:3px;"/>
                </g>
                <g>
                    <path d="M46,-0l0,512" style="fill:none;stroke:#fff;stroke-opacity:0.2;stroke-width:3px;"/>
                </g>
            </g>
            <g>
                <g>
                    <path d="M466,241l0,30" style="fill:none;stroke:#fff;stroke-opacity:0.25;stroke-width:3px;stroke-linejoin:round;stroke-miterlimit:1.5;"/>
                    <path d="M451,256l30,0" style="fill:none;stroke:#fff;stroke-opacity:0.25;stroke-width:3px;stroke-linejoin:round;stroke-miterlimit:1.5;"/>
                </g>
                <g>
                    <path d="M46,241l0,30" style="fill:none;stroke:#fff;stroke-opacity:0.25;stroke-width:3px;stroke-linejoin:round;stroke-miterlimit:1.5;"/>
                    <path d="M31,256l30,0" style="fill:none;stroke:#fff;stroke-opacity:0.25;stroke-width:3px;stroke-linejoin:round;stroke-miterlimit:1.5;"/>
                </g>
                <g>
                    <path d="M256,241l0,30" style="fill:none;stroke:#fff;stroke-opacity:0.25;stroke-width:3px;stroke-linejoin:round;stroke-miterlimit:1.5;"/>
                    <path d="M241,256l30,0" style="fill:none;stroke:#fff;stroke-opacity:0.25;stroke-width:3px;stroke-linejoin:round;stroke-miterlimit:1.5;"/>
                </g>
            </g>
            <g>
                <g>
                    <path d="M466,451l0,30" style="fill:none;stroke:#fff;stroke-opacity:0.25;stroke-width:3px;stroke-linejoin:round;stroke-miterlimit:1.5;"/>
                    <path d="M451,466l30,0" style="fill:none;stroke:#fff;stroke-opacity:0.25;stroke-width:3px;stroke-linejoin:round;stroke-miterlimit:1.5;"/>
                </g>
                <g>
                    <path d="M46,451l0,30" style="fill:none;stroke:#fff;stroke-opacity:0.25;stroke-width:3px;stroke-linejoin:round;stroke-miterlimit:1.5;"/>
                    <path d="M31,466l30,0" style="fill:none;stroke:#fff;stroke-opacity:0.25;stroke-width:3px;stroke-linejoin:round;stroke-miterlimit:1.5;"/>
                </g>
                <g>
                    <path d="M256,451l0,30" style="fill:none;stroke:#fff;stroke-opacity:0.25;stroke-width:3px;stroke-linejoin:round;stroke-miterlimit:1.5;"/>
                    <path d="M241,466l30,0" style="fill:none;stroke:#fff;stroke-opacity:0.25;stroke-width:3px;stroke-linejoin:round;stroke-miterlimit:1.5;"/>
                </g>
            </g>
            <g>
                <g>
                    <path d="M466,31l0,30" style="fill:none;stroke:#fff;stroke-opacity:0.25;stroke-width:3px;stroke-linejoin:round;stroke-miterlimit:1.5;"/>
                    <path d="M451,46l30,0" style="fill:none;stroke:#fff;stroke-opacity:0.25;stroke-width:3px;stroke-linejoin:round;stroke-miterlimit:1.5;"/>
                </g>
                <g>
                    <path d="M46,31l0,30" style="fill:none;stroke:#fff;stroke-opacity:0.25;stroke-width:3px;stroke-linejoin:round;stroke-miterlimit:1.5;"/>
                    <path d="M31,46l30,0" style="fill:none;stroke:#fff;stroke-opacity:0.25;stroke-width:3px;stroke-linejoin:round;stroke-miterlimit:1.5;"/>
                </g>
                <g>
                    <path d="M256,31l0,30" style="fill:none;stroke:#fff;stroke-opacity:0.25;stroke-width:3px;stroke-linejoin:round;stroke-miterlimit:1.5;"/>
                    <path d="M241,46l30,0" style="fill:none;stroke:#fff;stroke-opacity:0.25;stroke-width:3px;stroke-linejoin:round;stroke-miterlimit:1.5;"/>
                </g>
            </g>
        </g>
    </g>
</svg>
