<svg xmlns="http://www.w3.org/2000/svg" xml:space="preserve" fill-rule="evenodd" stroke-linecap="square" stroke-miterlimit="2" clip-rule="evenodd" viewBox="0 0 512 512"><path fill="none" d="M0 0h512v512H0z"/><clipPath id="a"><path d="M0 0h512v512H0z"/></clipPath><g clip-path="url(#a)"><path fill="#044cc7" d="M0 0h512v512H0z"/><path fill="#8da8d7" fill-rule="nonzero" d="M95.838 70.962v66.034h-9.705v-56.51h-.182L69.987 91.372v-9.705L85.77 70.962zm34.354 67.032a27.2 27.2 0 0 1-12.426-2.721 19.59 19.59 0 0 1-11.248-18.05h9.887a14.5 14.5 0 0 0 1.723 6.711q1.724 2.812 4.717 4.264a18.1 18.1 0 0 0 7.166 1.45q4.082 0 7.166-1.36a10.9 10.9 0 0 0 4.898-3.99 9.07 9.07 0 0 0 1.723-5.987 9.07 9.07 0 0 0-1.814-5.805 12.7 12.7 0 0 0-5.17-3.81 18.14 18.14 0 0 0-7.892-1.36h-5.533v-8.073h5.533a18.1 18.1 0 0 0 6.803-1.27 9.07 9.07 0 0 0 4.536-3.538 9.07 9.07 0 0 0 1.632-5.351 9.07 9.07 0 0 0-1.542-5.715 9.07 9.07 0 0 0-4.172-3.719 18.1 18.1 0 0 0-6.35-1.36 18.1 18.1 0 0 0-6.44 1.36 9.07 9.07 0 0 0-4.444 3.9 10.9 10.9 0 0 0-1.633 6.078h-9.524a19.05 19.05 0 0 1 10.703-17.234 27.2 27.2 0 0 1 11.43-2.54q6.349 0 11.156 2.449a18.14 18.14 0 0 1 7.62 6.53q2.72 4.083 2.72 9.343a13.6 13.6 0 0 1-3.265 9.162 18.14 18.14 0 0 1-8.617 5.26v.273q4.354.635 7.528 2.812a14.5 14.5 0 0 1 4.808 5.442 16.96 16.96 0 0 1-1.36 17.325 18.14 18.14 0 0 1-8.346 6.893 27.2 27.2 0 0 1-12.154 2.54Z"/><path fill="#fff" fill-rule="nonzero" d="M337.831 416.822q-6.34-1.014-9.663-4.931-4.485-5.286-4.485-16.276l.101-173.58-31.777-.035v176.457q-.04 13.965 5.447 24.224 5.484 10.26 16.066 15.785 4.229 2.208 9.224 3.534M70 442l79.365-220h40.156l79.413 220h-35.918l-42.51-123.522q-5.127-15.489-11.125-34.719-5.998-19.231-14.221-47.193h8.448q-8.2 28.043-14.204 47.354-6.003 19.31-11.104 34.557l-42.909 123.522zm43.682-57.404v-27.959h111.59v27.959z"/><path fill="none" stroke="#fff" stroke-opacity=".2" stroke-width="3" d="M0 256.002h512M0 46h512M0 466h512M255.998 0v512M466 0v512M46 0v512" opacity=".5"/><path fill="none" stroke="#fff" stroke-linejoin="round" stroke-miterlimit="1.5" stroke-opacity=".25" stroke-width="3" d="M466 241v30m-15-15h30M46 241v30m-15-15h30m195-15v30m-15-15h30m195 195v30m-15-15h30M46 451v30m-15-15h30m195-15v30m-15-15h30M466 31v30m-15-15h30M46 31v30M31 46h30m195-15v30m-15-15h30"/></g></svg>