<?xml version="1.0" encoding="UTF-8" standalone="no"?>
<!DOCTYPE svg PUBLIC "-//W3C//DTD SVG 1.1//EN" "http://www.w3.org/Graphics/SVG/1.1/DTD/svg11.dtd">
<svg width="100%" height="100%" viewBox="0 0 1786 512" version="1.1" xmlns="http://www.w3.org/2000/svg" xmlns:xlink="http://www.w3.org/1999/xlink" xml:space="preserve" xmlns:serif="http://www.serif.com/" style="fill-rule:evenodd;clip-rule:evenodd;stroke-linejoin:round;stroke-miterlimit:2;">
    <rect id="Logotype" x="0" y="0" width="1786" height="512" style="fill:none;"/>
    <clipPath id="_clip1">
        <rect x="0" y="0" width="1786" height="512"/>
    </clipPath>
    <g clip-path="url(#_clip1)">
        <rect x="0" y="-0" width="512" height="512" style="fill:#044cc7;"/>
        <g>
            <rect x="0" y="-0" width="512" height="512" style="fill:#044cc7;"/>
            <g transform="matrix(1.007838,0,0,1.007838,-3435.556024,-1117.567614)">
                <g>
                    <g transform="matrix(90,0,0,90,3445.814216,1215.039996)">
                        <path d="M0.315,-0.728l0,0.728l-0.107,-0l0,-0.623l-0.002,0l-0.176,0.12l0,-0.107l0.174,-0.118l0.111,0Z" style="fill:#8da8d7;fill-rule:nonzero;"/>
                    </g>
                    <g transform="matrix(90,0,0,90,3480.531013,1215.039996)">
                        <path d="M0.308,0.011c-0.052,0 -0.098,-0.01 -0.137,-0.03c-0.039,-0.02 -0.069,-0.047 -0.091,-0.081c-0.022,-0.035 -0.033,-0.074 -0.033,-0.118l0.109,0c0.001,0.029 0.007,0.053 0.019,0.074c0.012,0.021 0.03,0.036 0.052,0.047c0.022,0.011 0.049,0.016 0.079,0.016c0.03,0 0.056,-0.005 0.079,-0.015c0.023,-0.01 0.041,-0.025 0.054,-0.044c0.013,-0.019 0.019,-0.041 0.019,-0.066c0,-0.024 -0.007,-0.045 -0.02,-0.064c-0.014,-0.018 -0.033,-0.032 -0.057,-0.042c-0.024,-0.01 -0.053,-0.015 -0.087,-0.015l-0.061,0l0,-0.089l0.061,0c0.029,0 0.054,-0.005 0.075,-0.014c0.022,-0.009 0.038,-0.022 0.05,-0.039c0.012,-0.017 0.018,-0.036 0.018,-0.059c0,-0.024 -0.006,-0.045 -0.017,-0.063c-0.011,-0.018 -0.026,-0.031 -0.046,-0.041c-0.02,-0.01 -0.043,-0.015 -0.07,-0.015c-0.027,0 -0.051,0.005 -0.071,0.015c-0.021,0.01 -0.037,0.025 -0.049,0.043c-0.012,0.019 -0.018,0.041 -0.018,0.067l-0.105,0c0,-0.042 0.011,-0.08 0.032,-0.113c0.021,-0.033 0.05,-0.058 0.086,-0.077c0.037,-0.018 0.078,-0.028 0.126,-0.028c0.046,0 0.088,0.009 0.123,0.027c0.036,0.018 0.064,0.042 0.084,0.072c0.02,0.03 0.03,0.065 0.03,0.103c0,0.039 -0.012,0.073 -0.036,0.101c-0.024,0.028 -0.055,0.048 -0.095,0.058l0,0.003c0.032,0.005 0.06,0.015 0.083,0.031c0.023,0.016 0.041,0.036 0.053,0.06c0.012,0.024 0.019,0.051 0.019,0.08c0,0.042 -0.011,0.078 -0.034,0.111c-0.022,0.032 -0.053,0.058 -0.092,0.076c-0.039,0.018 -0.084,0.028 -0.134,0.028Z" style="fill:#8da8d7;fill-rule:nonzero;"/>
                    </g>
                </g>
            </g>
        </g>
        <g id="Alumnium">
            <g id="umnium">
                <g>
                    <path d="M525.085,396c-13.388,0 -25.353,-2.887 -35.895,-8.661c-10.54,-5.776 -18.816,-14.367 -24.828,-25.772c-6.01,-11.406 -9.015,-25.487 -9.015,-42.244l0,-123.343l39.131,0l0,118.503c0,15.173 3.763,26.778 11.289,34.816c7.526,8.038 17.952,12.057 31.277,12.057c8.841,0 16.787,-1.839 23.837,-5.516c7.053,-3.678 12.639,-9.311 16.76,-16.9c4.123,-7.591 6.184,-17.142 6.184,-28.652l0,-114.308l39.182,0l0,196.644l-38.049,0l-0.086,-48.6l7.26,0c-6.185,17.621 -14.934,30.689 -26.246,39.205c-11.31,8.514 -24.911,12.771 -40.803,12.771Z" style="fill:#fff;fill-rule:nonzero;"/>
                    <path d="M669.951,392.624l0,-196.644l37.75,0l0.334,42.966l-3.43,0c3.39,-10.403 8.152,-19.048 14.286,-25.935c6.134,-6.889 13.228,-12.062 21.283,-15.519c8.057,-3.457 16.517,-5.185 25.379,-5.185c14.908,0 27.432,4.383 37.573,13.15c10.14,8.767 16.568,20.08 19.283,33.94l-5.79,0c2.658,-9.431 7.106,-17.673 13.344,-24.728c6.238,-7.056 13.831,-12.547 22.779,-16.472c8.949,-3.927 18.776,-5.89 29.479,-5.89c11.997,0 22.869,2.605 32.616,7.814c9.748,5.209 23.218,23.31 23.218,23.31c0,0 8.598,23.239 8.598,38.726l0,130.468l-39.131,0l0,-126.91c0,-13.768 -3.83,-23.731 -11.489,-29.887c-7.658,-6.158 -16.7,-9.238 -27.128,-9.238c-8.493,0 -15.831,1.798 -22.014,5.394c-6.183,3.596 -10.953,8.551 -14.309,14.865c-3.354,6.313 -5.031,13.583 -5.031,21.811l0,123.965l-38.494,0l0,-129.607c0,-11.004 -3.547,-19.826 -10.642,-26.466c-7.094,-6.642 -16.112,-9.962 -27.054,-9.962c-7.443,0 -14.391,1.747 -20.844,5.242c-6.451,3.495 -11.637,8.667 -15.556,15.516c-3.919,6.847 -5.879,15.315 -5.879,25.404l0,119.872l-39.131,0Z" style="fill:#fff;fill-rule:nonzero;"/>
                    <path d="M1032.721,278.316l0,114.308l-39.131,0l0,-196.644l38.001,0l0.137,48.602l-7.311,0c6.151,-17.621 14.869,-30.688 26.155,-39.202c11.286,-8.516 24.933,-12.773 40.943,-12.773c13.477,0 25.456,2.888 35.935,8.664c10.481,5.774 18.726,14.339 24.736,25.695c6.01,11.354 9.015,25.46 9.015,42.318l0,123.34l-39.131,0l0,-118.503c0,-15.188 -3.735,-26.797 -11.204,-34.827c-7.467,-8.03 -17.905,-12.046 -31.312,-12.046c-8.833,0 -16.786,1.839 -23.857,5.516c-7.072,3.678 -12.669,9.285 -16.792,16.823c-4.123,7.536 -6.184,17.112 -6.184,28.729Z" style="fill:#fff;fill-rule:nonzero;"/>
                    <path d="M1208.194,392.624l0,-196.644l39.131,0l0,196.644l-39.131,0Zm19.583,-229.132c-6.864,0 -12.691,-2.311 -17.479,-6.932c-4.787,-4.623 -7.18,-10.233 -7.18,-16.829c0,-6.653 2.393,-12.271 7.18,-16.854c4.789,-4.585 10.596,-6.878 17.422,-6.878c6.931,0 12.792,2.291 17.582,6.872c4.791,4.581 7.186,10.22 7.186,16.917c0,6.581 -2.398,12.177 -7.194,16.789c-4.796,4.61 -10.635,6.915 -17.516,6.915Z" style="fill:#fff;fill-rule:nonzero;"/>
                    <path d="M1363.955,396c-13.388,0 -25.353,-2.887 -35.895,-8.661c-10.54,-5.776 -18.816,-14.367 -24.828,-25.772c-6.01,-11.406 -9.015,-25.487 -9.015,-42.244l0,-123.343l39.131,0l0,118.503c0,15.173 3.763,26.778 11.289,34.816c7.526,8.038 17.952,12.057 31.277,12.057c8.841,0 16.787,-1.839 23.837,-5.516c7.053,-3.678 12.639,-9.311 16.76,-16.9c4.123,-7.591 6.184,-17.142 6.184,-28.652l0,-114.308l39.182,0l0,196.644l-38.049,0l-0.086,-48.6l7.26,0c-6.185,17.621 -14.934,30.689 -26.246,39.205c-11.31,8.514 -24.911,12.771 -40.803,12.771Z" style="fill:#fff;fill-rule:nonzero;"/>
                    <path d="M1508.821,392.624l0,-196.644l37.75,0l0.334,42.966l-3.43,0c3.39,-10.403 8.152,-19.048 14.286,-25.935c6.134,-6.889 13.228,-12.062 21.283,-15.519c8.057,-3.457 16.517,-5.185 25.379,-5.185c14.908,0 27.432,4.383 37.573,13.15c10.14,8.767 16.568,20.08 19.283,33.94l-5.79,0c2.658,-9.431 7.106,-17.673 13.344,-24.728c6.238,-7.056 13.831,-12.547 22.779,-16.472c8.949,-3.927 18.776,-5.89 29.479,-5.89c11.997,0 22.869,2.605 32.616,7.814c9.748,5.209 17.488,12.979 23.218,23.31c5.732,10.331 8.598,23.239 8.598,38.726l0,130.468l-39.131,0l0,-126.91c0,-13.768 -3.83,-23.731 -11.489,-29.887c-7.658,-6.158 -16.7,-9.238 -27.128,-9.238c-8.493,0 -15.831,1.798 -22.014,5.394c-6.183,3.596 -10.953,8.551 -14.309,14.865c-3.354,6.313 -5.031,13.583 -5.031,21.811l0,123.965l-38.494,0l0,-129.607c0,-11.004 -3.547,-19.826 -10.642,-26.466c-7.094,-6.642 -16.112,-9.962 -27.054,-9.962c-7.443,0 -14.391,1.747 -20.844,5.242c-6.451,3.495 -11.637,8.667 -15.556,15.516c-3.919,6.847 -5.879,15.315 -5.879,25.404l0,119.872l-39.131,0Z" style="fill:#fff;fill-rule:nonzero;"/>
                </g>
            </g>
            <g id="AL-New" serif:id="AL New">
                <path id="Custom-L-v2" serif:id="Custom L v2" d="M421.301,361.479c-5.228,-0.837 -9.213,-2.87 -11.953,-6.099c-3.698,-4.359 -5.548,-11.07 -5.548,-20.133l0.125,-214.715l-39.308,-0.043l0,218.274c-0.032,11.516 2.214,21.504 6.738,29.965c4.522,8.46 11.147,14.969 19.874,19.525c3.487,1.821 7.29,3.278 11.41,4.371" style="fill:#fff;fill-rule:nonzero;"/>
                <path id="Inter-A" serif:id="Inter A" d="M90,392.624l98.172,-272.135l49.673,-0l98.232,272.135l-44.43,0l-52.583,-152.793c-4.227,-12.773 -8.814,-27.089 -13.761,-42.946c-4.947,-15.859 -10.81,-35.318 -17.591,-58.377l10.45,0c-6.762,23.125 -12.618,42.65 -17.571,58.576c-4.95,15.924 -9.529,30.173 -13.735,42.747l-53.077,152.793l-43.78,0Zm54.033,-71.007l0,-34.585l138.034,0l0,34.585l-138.034,0Z" style="fill:#fff;fill-rule:nonzero;"/>
            </g>
        </g>
    </g>
</svg>
