<svg xmlns="http://www.w3.org/2000/svg" xml:space="preserve" fill-rule="evenodd" stroke-linejoin="round" stroke-miterlimit="2" clip-rule="evenodd" viewBox="0 0 512 512"><path fill="none" d="M0 0h511.98v512H0z"/><clipPath id="a"><path d="M0 0h511.98v512H0z"/></clipPath><g clip-path="url(#a)"><path fill="#044cc7" d="M0 0h512v512H0z"/><path fill="#044cc7" d="M0 0h512v512H0z"/><path fill="#8da8d7" fill-rule="nonzero" d="M65.838 40.962v66.034h-9.705v-56.51h-.182L39.987 61.372v-9.705L55.77 40.962zm34.354 67.032a27.2 27.2 0 0 1-12.426-2.721 19.59 19.59 0 0 1-11.248-18.05h9.887a14.5 14.5 0 0 0 1.723 6.711q1.724 2.812 4.717 4.264a18.1 18.1 0 0 0 7.166 1.45q4.082 0 7.166-1.36a10.9 10.9 0 0 0 4.898-3.99 9.07 9.07 0 0 0 1.723-5.987 9.07 9.07 0 0 0-1.814-5.805 12.7 12.7 0 0 0-5.17-3.81 18.14 18.14 0 0 0-7.892-1.36H93.39v-8.073h5.533a18.1 18.1 0 0 0 6.803-1.27 9.07 9.07 0 0 0 4.536-3.538 9.07 9.07 0 0 0 1.632-5.351 9.07 9.07 0 0 0-1.542-5.715 9.07 9.07 0 0 0-4.172-3.719 18.1 18.1 0 0 0-6.35-1.36 18.1 18.1 0 0 0-6.44 1.36 9.07 9.07 0 0 0-4.444 3.9 10.9 10.9 0 0 0-1.633 6.078h-9.524a19.05 19.05 0 0 1 10.703-17.234 27.2 27.2 0 0 1 11.43-2.54q6.349 0 11.156 2.449a18.14 18.14 0 0 1 7.62 6.53q2.72 4.083 2.72 9.343a13.6 13.6 0 0 1-3.265 9.162 18.14 18.14 0 0 1-8.617 5.26v.273q4.354.635 7.528 2.812a14.5 14.5 0 0 1 4.808 5.442 16.96 16.96 0 0 1-1.36 17.325 18.14 18.14 0 0 1-8.346 6.893 27.2 27.2 0 0 1-12.154 2.54Z"/><path fill="#fff" fill-rule="nonzero" d="M421.301 361.479q-7.842-1.256-11.953-6.099-5.547-6.538-5.548-20.133l.125-214.715-39.308-.043v218.274q-.048 17.274 6.738 29.965 6.783 12.69 19.874 19.525 5.23 2.732 11.41 4.371m-312.639 0 98.172-272.135h49.673l98.232 272.135h-44.43l-52.583-152.793q-6.34-19.16-13.761-42.946-7.42-23.789-17.591-58.377h10.45q-10.142 34.687-17.571 58.576-7.425 23.886-13.735 42.747l-53.077 152.793zm54.033-71.007v-34.585h138.034v34.585z"/></g></svg>