<?xml version="1.0" encoding="UTF-8" standalone="no"?>
<!DOCTYPE svg PUBLIC "-//W3C//DTD SVG 1.1//EN" "http://www.w3.org/Graphics/SVG/1.1/DTD/svg11.dtd">
<svg width="100%" height="100%" viewBox="0 0 512 512" version="1.1" xmlns="http://www.w3.org/2000/svg" xmlns:xlink="http://www.w3.org/1999/xlink" xml:space="preserve" xmlns:serif="http://www.serif.com/" style="fill-rule:evenodd;clip-rule:evenodd;stroke-linejoin:round;stroke-miterlimit:2;">
    <rect id="Logomark" x="0" y="0" width="511.98" height="512" style="fill:none;"/>
    <clipPath id="_clip1">
        <rect x="0" y="0" width="511.98" height="512"/>
    </clipPath>
    <g clip-path="url(#_clip1)">
        <rect x="-0" y="-0" width="512" height="512" style="fill:#044cc7;"/>
        <g>
            <rect x="0" y="-0" width="512" height="512" style="fill:#044cc7;"/>
            <g transform="matrix(1.007838,0,0,1.007838,-3435.556024,-1117.567614)">
                <g>
                    <g transform="matrix(90,0,0,90,3445.814216,1215.039996)">
                        <path d="M0.315,-0.728l0,0.728l-0.107,-0l0,-0.623l-0.002,0l-0.176,0.12l0,-0.107l0.174,-0.118l0.111,0Z" style="fill:#8da8d7;fill-rule:nonzero;"/>
                    </g>
                    <g transform="matrix(90,0,0,90,3480.531013,1215.039996)">
                        <path d="M0.308,0.011c-0.052,0 -0.098,-0.01 -0.137,-0.03c-0.039,-0.02 -0.069,-0.047 -0.091,-0.081c-0.022,-0.035 -0.033,-0.074 -0.033,-0.118l0.109,0c0.001,0.029 0.007,0.053 0.019,0.074c0.012,0.021 0.03,0.036 0.052,0.047c0.022,0.011 0.049,0.016 0.079,0.016c0.03,0 0.056,-0.005 0.079,-0.015c0.023,-0.01 0.041,-0.025 0.054,-0.044c0.013,-0.019 0.019,-0.041 0.019,-0.066c0,-0.024 -0.007,-0.045 -0.02,-0.064c-0.014,-0.018 -0.033,-0.032 -0.057,-0.042c-0.024,-0.01 -0.053,-0.015 -0.087,-0.015l-0.061,0l0,-0.089l0.061,0c0.029,0 0.054,-0.005 0.075,-0.014c0.022,-0.009 0.038,-0.022 0.05,-0.039c0.012,-0.017 0.018,-0.036 0.018,-0.059c0,-0.024 -0.006,-0.045 -0.017,-0.063c-0.011,-0.018 -0.026,-0.031 -0.046,-0.041c-0.02,-0.01 -0.043,-0.015 -0.07,-0.015c-0.027,0 -0.051,0.005 -0.071,0.015c-0.021,0.01 -0.037,0.025 -0.049,0.043c-0.012,0.019 -0.018,0.041 -0.018,0.067l-0.105,0c0,-0.042 0.011,-0.08 0.032,-0.113c0.021,-0.033 0.05,-0.058 0.086,-0.077c0.037,-0.018 0.078,-0.028 0.126,-0.028c0.046,0 0.088,0.009 0.123,0.027c0.036,0.018 0.064,0.042 0.084,0.072c0.02,0.03 0.03,0.065 0.03,0.103c0,0.039 -0.012,0.073 -0.036,0.101c-0.024,0.028 -0.055,0.048 -0.095,0.058l0,0.003c0.032,0.005 0.06,0.015 0.083,0.031c0.023,0.016 0.041,0.036 0.053,0.06c0.012,0.024 0.019,0.051 0.019,0.08c0,0.042 -0.011,0.078 -0.034,0.111c-0.022,0.032 -0.053,0.058 -0.092,0.076c-0.039,0.018 -0.084,0.028 -0.134,0.028Z" style="fill:#8da8d7;fill-rule:nonzero;"/>
                    </g>
                </g>
            </g>
        </g>
        <g id="Alumnium">
            <g id="AL-New" serif:id="AL New">
                <path id="Custom-L-v2" serif:id="Custom L v2" d="M421.301,361.479c-5.228,-0.837 -9.213,-2.87 -11.953,-6.099c-3.698,-4.359 -5.548,-11.07 -5.548,-20.133l0.125,-214.715l-39.308,-0.043l0,218.274c-0.032,11.516 2.214,21.504 6.738,29.965c4.522,8.46 11.147,14.969 19.874,19.525c3.487,1.821 7.29,3.278 11.41,4.371" style="fill:#fff;fill-rule:nonzero;"/>
                <path id="Inter-A" serif:id="Inter A" d="M90,392.624l98.172,-272.135l49.673,-0l98.232,272.135l-44.43,0l-52.583,-152.793c-4.227,-12.773 -8.814,-27.089 -13.761,-42.946c-4.947,-15.859 -10.81,-35.318 -17.591,-58.377l10.45,0c-6.762,23.125 -12.618,42.65 -17.571,58.576c-4.95,15.924 -9.529,30.173 -13.735,42.747l-53.077,152.793l-43.78,0Zm54.033,-71.007l0,-34.585l138.034,0l0,34.585l-138.034,0Z" style="fill:#fff;fill-rule:nonzero;"/>
            </g>
        </g>
    </g>
</svg>
