<svg xmlns="http://www.w3.org/2000/svg" xml:space="preserve" fill-rule="evenodd" stroke-linejoin="round" stroke-miterlimit="2" clip-rule="evenodd" viewBox="0 0 1635 270"><path fill="none" d="M0 0h1634.967v270H0z"/><clipPath id="a"><path d="M0 0h1634.967v270H0z"/></clipPath><g clip-path="url(#a)"><path fill="#fff" fill-rule="nonzero" d="M419.546 270q-19.365 0-34.613-8.352-15.245-8.355-23.941-24.852-8.693-16.497-8.693-40.736V77.123h37.733v114.27q0 21.946 10.886 33.573 10.887 11.627 30.16 11.627 12.788 0 22.986-5.319 10.201-5.319 16.162-16.296 5.963-10.98 5.963-27.629V77.124h37.783v189.621h-36.69l-.083-46.864h7.001q-8.946 25.487-25.309 37.805-16.36 12.315-39.346 12.315Zm139.692-3.255V77.124h36.401l.322 41.432h-3.308q4.903-15.047 13.776-25.009 8.872-9.964 20.523-14.965 11.654-5 24.472-5 21.564 0 36.231 12.681t18.594 32.728h-5.583q3.844-13.64 12.868-23.845 9.023-10.206 21.965-15.884 12.944-5.68 28.427-5.68 17.353 0 31.451 7.535c9.4 5.023 22.389 22.477 22.389 22.477s8.291 22.409 8.291 37.343v125.809h-37.733V144.369q0-19.915-11.079-28.82-11.076-8.907-26.159-8.908-12.283 0-21.228 5.201-8.944 5.2-13.798 14.334-4.852 9.13-4.852 21.032v119.537h-37.12V141.767q0-15.916-10.262-25.521t-26.087-9.607q-10.766 0-20.099 5.055-9.331 5.055-15 14.962-5.669 9.904-5.669 24.497v115.591h-37.733Zm349.815-110.226v110.225H871.32V77.123h36.644l.132 46.867h-7.05q8.897-25.488 25.221-37.802 16.324-12.317 39.481-12.317 19.494 0 34.651 8.355 15.16 8.352 23.853 24.778 8.693 16.423 8.693 40.807v118.935h-37.733v-114.27q0-21.968-10.804-33.584-10.801-11.616-30.193-11.616-12.777 0-23.005 5.319-10.228 5.32-16.192 16.222-5.963 10.9-5.963 27.703Zm169.205 110.226V77.124h37.733v189.621zm18.883-220.948q-9.928 0-16.855-6.684-6.924-6.687-6.924-16.228 0-9.623 6.924-16.252 6.927-6.632 16.8-6.632 10.025 0 16.954 6.626t6.929 16.313q0 9.519-6.937 16.189-6.937 6.668-16.891 6.668M1228.457 270q-19.364 0-34.613-8.352-15.245-8.355-23.941-24.852-8.693-16.497-8.693-40.736V77.123h37.733v114.27q0 21.946 10.886 33.573 10.887 11.627 30.16 11.627 12.787 0 22.986-5.319 10.201-5.319 16.162-16.296 5.963-10.98 5.963-27.629V77.124h37.783v189.621h-36.69l-.083-46.864h7.001q-8.946 25.487-25.309 37.805-16.36 12.315-39.346 12.315Zm139.692-3.255V77.124h36.401l.322 41.432h-3.308q4.903-15.047 13.776-25.009 8.873-9.964 20.523-14.965 11.654-5 24.472-5 21.564 0 36.231 12.681t18.594 32.728h-5.583q3.844-13.64 12.868-23.845 9.024-10.206 21.965-15.884 12.945-5.68 28.427-5.68 17.353 0 31.451 7.535 14.1 7.534 22.389 22.477 8.292 14.942 8.291 37.343v125.809h-37.733V144.369q0-19.915-11.079-28.82-11.076-8.907-26.159-8.908-12.284 0-21.228 5.201-8.943 5.2-13.798 14.334-4.851 9.13-4.852 21.032v119.537h-37.12V141.767q0-15.916-10.262-25.521t-26.087-9.607q-10.766 0-20.099 5.055t-15 14.962q-5.669 9.904-5.669 24.497v115.591h-37.733Zm-1048.68-30.033q-7.563-1.21-11.526-5.881-5.35-6.304-5.35-19.414l.121-207.047-37.904-.041v210.478q-.046 16.657 6.497 28.894 6.541 12.237 19.164 18.828 5.043 2.634 11.002 4.215M0 266.745 94.666 4.329h47.899l94.724 262.416h-42.843l-50.705-147.337q-6.115-18.475-13.269-41.413-7.155-22.94-16.962-56.292h10.077q-9.78 33.449-16.943 56.484-7.16 23.033-13.245 41.22L42.217 266.744zm52.103-68.471v-33.35h133.104v33.35z"/></g></svg>