<?xml version="1.0" encoding="UTF-8" standalone="no"?>
<!DOCTYPE svg PUBLIC "-//W3C//DTD SVG 1.1//EN" "http://www.w3.org/Graphics/SVG/1.1/DTD/svg11.dtd">
<svg width="100%" height="100%" viewBox="0 0 1635 270" version="1.1" xmlns="http://www.w3.org/2000/svg" xmlns:xlink="http://www.w3.org/1999/xlink" xml:space="preserve" xmlns:serif="http://www.serif.com/" style="fill-rule:evenodd;clip-rule:evenodd;stroke-linejoin:round;stroke-miterlimit:2;">
    <rect id="Wordmark" x="0" y="0" width="1634.967" height="270" style="fill:none;"/>
    <clipPath id="_clip1">
        <rect x="0" y="0" width="1634.967" height="270"/>
    </clipPath>
    <g clip-path="url(#_clip1)">
        <g id="Alumnium">
            <g id="umnium">
                <g>
                    <path d="M419.546,270c-12.91,0 -24.447,-2.784 -34.613,-8.352c-10.163,-5.57 -18.144,-13.854 -23.941,-24.852c-5.795,-10.998 -8.693,-24.577 -8.693,-40.736l0,-118.937l37.733,0l0,114.27c0,14.631 3.629,25.821 10.886,33.573c7.258,7.751 17.311,11.627 30.16,11.627c8.525,0 16.187,-1.773 22.986,-5.319c6.801,-3.546 12.188,-8.978 16.162,-16.296c3.975,-7.32 5.963,-16.529 5.963,-27.629l0,-110.225l37.783,0l0,189.621l-36.69,0l-0.083,-46.864l7.001,0c-5.964,16.992 -14.4,29.593 -25.309,37.805c-10.906,8.21 -24.022,12.315 -39.346,12.315Z" style="fill:#fff;fill-rule:nonzero;"/>
                    <path d="M559.238,266.745l0,-189.621l36.401,0l0.322,41.432l-3.308,0c3.269,-10.031 7.861,-18.368 13.776,-25.009c5.915,-6.643 12.756,-11.631 20.523,-14.965c7.769,-3.333 15.927,-5 24.472,-5c14.376,0 26.453,4.227 36.231,12.681c9.778,8.454 15.976,19.363 18.594,32.728l-5.583,0c2.563,-9.094 6.852,-17.042 12.868,-23.845c6.016,-6.804 13.337,-12.099 21.965,-15.884c8.63,-3.787 18.105,-5.68 28.427,-5.68c11.569,0 22.052,2.512 31.451,7.535c9.4,5.023 22.389,22.477 22.389,22.477c0,0 8.291,22.409 8.291,37.343l0,125.809l-37.733,0l0,-122.377c0,-13.277 -3.693,-22.883 -11.079,-28.82c-7.384,-5.938 -16.104,-8.908 -26.159,-8.908c-8.189,0 -15.265,1.734 -21.228,5.201c-5.962,3.467 -10.562,8.245 -13.798,14.334c-3.234,6.087 -4.852,13.098 -4.852,21.032l0,119.537l-37.12,0l0,-124.978c0,-10.611 -3.421,-19.118 -10.262,-25.521c-6.841,-6.404 -15.537,-9.607 -26.087,-9.607c-7.177,0 -13.877,1.685 -20.099,5.055c-6.221,3.37 -11.221,8.357 -15,14.962c-3.779,6.603 -5.669,14.768 -5.669,24.497l0,115.591l-37.733,0Z" style="fill:#fff;fill-rule:nonzero;"/>
                    <path d="M909.053,156.519l0,110.225l-37.733,0l0,-189.621l36.644,0l0.132,46.867l-7.05,0c5.931,-16.992 14.338,-29.592 25.221,-37.802c10.883,-8.212 24.043,-12.317 39.481,-12.317c12.996,0 24.546,2.785 34.651,8.355c10.107,5.568 18.058,13.827 23.853,24.778c5.795,10.949 8.693,24.551 8.693,40.807l0,118.935l-37.733,0l0,-114.27c0,-14.645 -3.601,-25.84 -10.804,-33.584c-7.201,-7.744 -17.265,-11.616 -30.193,-11.616c-8.518,0 -16.186,1.773 -23.005,5.319c-6.819,3.546 -12.216,8.954 -16.192,16.222c-3.975,7.267 -5.963,16.501 -5.963,27.703Z" style="fill:#fff;fill-rule:nonzero;"/>
                    <path d="M1078.258,266.745l0,-189.621l37.733,0l0,189.621l-37.733,0Zm18.883,-220.948c-6.619,-0 -12.237,-2.228 -16.855,-6.684c-4.616,-4.458 -6.924,-9.867 -6.924,-16.228c0,-6.415 2.308,-11.833 6.924,-16.252c4.618,-4.421 10.218,-6.632 16.8,-6.632c6.683,0 12.335,2.209 16.954,6.626c4.619,4.418 6.929,9.855 6.929,16.313c0,6.346 -2.312,11.742 -6.937,16.189c-4.625,4.445 -10.255,6.668 -16.891,6.668Z" style="fill:#fff;fill-rule:nonzero;"/>
                    <path d="M1228.457,270c-12.91,0 -24.447,-2.784 -34.613,-8.352c-10.163,-5.57 -18.144,-13.854 -23.941,-24.852c-5.795,-10.998 -8.693,-24.577 -8.693,-40.736l0,-118.937l37.733,0l0,114.27c0,14.631 3.629,25.821 10.886,33.573c7.258,7.751 17.311,11.627 30.16,11.627c8.525,0 16.187,-1.773 22.986,-5.319c6.801,-3.546 12.188,-8.978 16.162,-16.296c3.975,-7.32 5.963,-16.529 5.963,-27.629l0,-110.225l37.783,0l0,189.621l-36.69,0l-0.083,-46.864l7.001,0c-5.964,16.992 -14.4,29.593 -25.309,37.805c-10.906,8.21 -24.022,12.315 -39.346,12.315Z" style="fill:#fff;fill-rule:nonzero;"/>
                    <path d="M1368.149,266.745l0,-189.621l36.401,0l0.322,41.432l-3.308,0c3.269,-10.031 7.861,-18.368 13.776,-25.009c5.915,-6.643 12.756,-11.631 20.523,-14.965c7.769,-3.333 15.927,-5 24.472,-5c14.376,0 26.453,4.227 36.231,12.681c9.778,8.454 15.976,19.363 18.594,32.728l-5.583,0c2.563,-9.094 6.852,-17.042 12.868,-23.845c6.016,-6.804 13.337,-12.099 21.965,-15.884c8.63,-3.787 18.105,-5.68 28.427,-5.68c11.569,0 22.052,2.512 31.451,7.535c9.4,5.023 16.863,12.515 22.389,22.477c5.528,9.962 8.291,22.409 8.291,37.343l0,125.809l-37.733,0l0,-122.377c0,-13.277 -3.693,-22.883 -11.079,-28.82c-7.384,-5.938 -16.104,-8.908 -26.159,-8.908c-8.189,0 -15.265,1.734 -21.228,5.201c-5.962,3.467 -10.562,8.245 -13.798,14.334c-3.234,6.087 -4.852,13.098 -4.852,21.032l0,119.537l-37.12,0l0,-124.978c0,-10.611 -3.421,-19.118 -10.262,-25.521c-6.841,-6.404 -15.537,-9.607 -26.087,-9.607c-7.177,0 -13.877,1.685 -20.099,5.055c-6.221,3.37 -11.221,8.357 -15,14.962c-3.779,6.603 -5.669,14.768 -5.669,24.497l0,115.591l-37.733,0Z" style="fill:#fff;fill-rule:nonzero;"/>
                </g>
            </g>
            <g id="AL-New" serif:id="AL New">
                <path id="Custom-L-v2" serif:id="Custom L v2" d="M319.469,236.712c-5.042,-0.807 -8.884,-2.767 -11.526,-5.881c-3.566,-4.203 -5.35,-10.674 -5.35,-19.414l0.121,-207.047l-37.904,-0.041l0,210.478c-0.031,11.105 2.135,20.736 6.497,28.894c4.361,8.158 10.749,14.434 19.164,18.828c3.362,1.756 7.03,3.161 11.002,4.215" style="fill:#fff;fill-rule:nonzero;"/>
                <path id="Inter-A" serif:id="Inter A" d="M0,266.745l94.666,-262.416l47.899,0l94.724,262.416l-42.843,0l-50.705,-147.337c-4.076,-12.317 -8.5,-26.121 -13.269,-41.413c-4.77,-15.293 -10.424,-34.057 -16.962,-56.292l10.077,0c-6.52,22.299 -12.168,41.127 -16.943,56.484c-4.774,15.355 -9.188,29.095 -13.245,41.22l-51.182,147.337l-42.216,0Zm52.103,-68.471l0,-33.35l133.104,0l0,33.35l-133.104,0Z" style="fill:#fff;fill-rule:nonzero;"/>
            </g>
        </g>
    </g>
</svg>
